<?xml version="1.0" encoding="UTF-8" standalone="no"?>
<svg
   width="800pt"
   height="798pt"
   viewBox="0 0 800 798"
   version="1.1"
   id="svg62"
   sodipodi:docname="SVG-semfundo_WhatsApp Image 2026-07-14 at 18.svg"
   inkscape:version="1.4.3 (0d15f75, 2025-12-25)"
   xmlns:inkscape="http://www.inkscape.org/namespaces/inkscape"
   xmlns:sodipodi="http://sodipodi.sourceforge.net/DTD/sodipodi-0.dtd"
   xmlns="http://www.w3.org/2000/svg"
   xmlns:svg="http://www.w3.org/2000/svg">
  <defs
     id="defs62">
    <rect
       x="407.41267"
       y="376.64696"
       width="725.02986"
       height="53.499508"
       id="rect62" />
  </defs>
  <sodipodi:namedview
     id="namedview62"
     pagecolor="#ffffff"
     bordercolor="#666666"
     borderopacity="1.0"
     inkscape:showpageshadow="2"
     inkscape:pageopacity="0.0"
     inkscape:pagecheckerboard="0"
     inkscape:deskcolor="#d1d1d1"
     inkscape:document-units="pt"
     inkscape:zoom="0.37922932"
     inkscape:cx="102.84015"
     inkscape:cy="233.36803"
     inkscape:window-width="1920"
     inkscape:window-height="1009"
     inkscape:window-x="-8"
     inkscape:window-y="-8"
     inkscape:window-maximized="1"
     inkscape:current-layer="svg62" />
  <g
     id="#fefefeff">
    <path
       fill="#fefefe"
       opacity="1.00"
       d=" M 137.68 315.68 C 145.58 309.19 155.77 305.65 165.99 305.74 C 179.01 305.77 192.03 305.68 205.05 305.79 C 219.31 306.24 232.87 315.12 238.90 328.05 C 241.43 333.32 242.76 339.15 242.69 345.00 C 242.72 360.54 242.66 376.08 242.71 391.62 L 242.30 391.67 C 227.51 393.51 212.74 395.49 197.96 397.36 C 185.12 399.15 172.08 400.11 159.58 403.75 C 150.13 406.47 141.24 411.29 134.10 418.09 C 126.22 425.60 120.40 434.98 115.55 444.66 L 115.13 443.92 C 113.19 431.31 114.78 418.05 120.39 406.52 C 122.07 403.61 121.63 400.19 121.66 396.98 C 121.63 381.00 121.65 365.02 121.65 349.04 C 121.75 336.27 127.75 323.72 137.68 315.68 M 161.23 327.39 C 155.79 328.06 150.71 331.23 147.72 335.82 C 143.81 341.40 144.40 348.51 144.49 354.97 C 144.64 361.41 147.51 368.45 153.51 371.51 C 156.88 373.29 160.62 371.73 163.99 370.81 C 172.38 368.25 181.30 367.92 189.99 368.66 C 197.06 369.25 203.95 372.10 211.13 371.18 C 215.85 370.55 219.87 366.91 221.14 362.35 C 222.52 357.37 222.38 352.13 222.67 347.02 C 223.12 336.10 212.67 326.98 202.09 327.23 C 188.47 327.33 174.84 327.00 161.23 327.39 Z"
       id="path7" />
    <path
       fill="#fefefe"
       opacity="1.00"
       d=" M 242.64 428.82 C 246.64 410.15 250.42 391.44 254.39 372.77 C 259.91 372.83 265.42 372.80 270.94 372.80 C 269.36 381.40 267.26 389.90 265.76 398.52 C 271.86 389.98 277.84 381.36 283.91 372.80 C 290.49 372.80 297.07 372.80 303.65 372.81 C 296.38 381.63 289.32 390.61 282.03 399.41 C 285.68 409.28 289.67 419.01 293.45 428.83 C 286.69 428.81 279.94 428.88 273.19 428.79 C 270.41 420.02 267.60 411.27 264.82 402.51 C 262.91 411.27 261.19 420.07 259.30 428.84 C 253.75 428.83 248.19 428.84 242.64 428.82 Z"
       id="path8" />
    <path
       fill="#fefefe"
       opacity="1.00"
       d=" M 297.10 428.81 C 300.90 410.13 304.86 391.48 308.74 372.81 C 320.18 372.79 331.62 372.83 343.07 372.79 C 342.24 377.17 341.35 381.54 340.43 385.90 C 334.50 385.92 328.58 385.91 322.65 385.92 C 322.09 388.67 321.52 391.42 320.97 394.19 C 326.51 394.14 332.04 394.15 337.58 394.16 C 336.66 398.56 335.81 402.98 334.90 407.38 C 329.31 407.38 323.73 407.36 318.15 407.39 C 317.60 410.13 317.03 412.87 316.47 415.60 C 322.81 415.59 329.16 415.60 335.51 415.61 C 334.49 419.99 333.62 424.41 332.69 428.82 C 320.83 428.83 308.96 428.85 297.10 428.81 Z"
       id="path9" />
    <path
       fill="#fefefe"
       opacity="1.00"
       d=" M 345.20 385.88 C 346.15 381.53 347.07 377.18 347.90 372.80 C 363.85 372.80 379.80 372.81 395.75 372.81 C 394.83 377.16 393.99 381.53 393.11 385.90 C 387.92 386.05 382.69 385.60 377.52 386.16 C 374.15 400.30 371.54 414.63 368.50 428.85 C 362.94 428.83 357.38 428.83 351.82 428.83 C 354.69 414.50 357.73 400.21 360.71 385.91 C 355.54 385.92 350.37 385.92 345.20 385.88 Z"
       id="path10" />
    <path
       fill="#fefefe"
       opacity="1.00"
       d=" M 396.01 385.94 C 396.89 381.56 397.76 377.17 398.68 372.79 C 414.64 372.82 430.60 372.81 446.56 372.80 C 445.55 377.21 444.70 381.66 443.76 386.08 C 438.57 385.88 433.39 385.92 428.20 385.89 C 425.14 400.19 422.21 414.51 419.23 428.83 C 413.65 428.84 408.06 428.85 402.48 428.81 C 405.53 414.52 408.42 400.20 411.46 385.91 C 406.31 385.91 401.16 385.90 396.01 385.94 Z"
       id="path11" />
    <path
       fill="#fefefe"
       opacity="1.00"
       d=" M 453.01 372.81 C 458.58 372.80 464.15 372.82 469.72 372.79 C 466.81 387.06 463.77 401.31 460.83 415.58 C 467.17 415.62 473.51 415.59 479.86 415.61 C 478.90 420.00 477.89 424.38 477.13 428.81 C 465.22 428.87 453.31 428.81 441.40 428.84 C 445.26 410.16 449.31 391.52 453.01 372.81 Z"
       id="path12" />
    <path
       fill="#fefefe"
       opacity="1.00"
       d=" M 484.03 428.86 C 487.95 410.18 491.84 391.50 495.70 372.81 C 507.16 372.80 518.62 372.82 530.08 372.79 C 529.31 377.19 528.27 381.54 527.38 385.91 C 521.46 385.90 515.53 385.93 509.61 385.91 C 509.03 388.64 508.49 391.39 507.99 394.15 C 513.54 394.17 519.08 394.13 524.63 394.19 C 523.72 398.58 522.70 402.94 521.94 407.35 C 516.36 407.40 510.79 407.35 505.22 407.38 C 504.63 410.13 504.06 412.87 503.43 415.61 C 509.77 415.60 516.12 415.59 522.47 415.60 C 521.57 420.02 520.65 424.44 519.66 428.84 C 507.78 428.84 495.90 428.81 484.03 428.86 Z"
       id="path13" />
    <path
       fill="#fefefe"
       opacity="1.00"
       d=" M 527.50 428.83 C 531.49 410.16 535.27 391.44 539.25 372.77 C 547.15 372.86 555.06 372.74 562.96 372.83 C 567.70 373.04 572.80 373.42 576.80 376.25 C 581.40 379.52 582.19 386.27 580.05 391.19 C 577.76 395.89 572.62 398.23 567.74 399.23 C 571.22 400.33 575.00 401.76 576.87 405.14 C 580.14 411.26 578.16 419.58 572.57 423.67 C 567.33 427.70 560.44 428.76 553.99 428.83 C 545.16 428.85 536.33 428.83 527.50 428.83 M 553.53 384.01 C 552.74 387.55 552.01 391.11 551.28 394.68 C 554.61 394.48 558.34 395.20 561.31 393.30 C 564.18 391.57 564.50 386.33 561.31 384.82 C 558.81 383.95 556.12 384.15 553.53 384.01 M 548.97 405.90 C 548.17 409.79 547.24 413.65 546.43 417.54 C 550.47 417.30 555.14 418.30 558.62 415.66 C 561.78 413.50 561.54 407.43 557.56 406.33 C 554.75 405.68 551.82 405.97 548.97 405.90 Z"
       id="path14" />
    <path
       fill="#fefefe"
       opacity="1.00"
       d=" M 582.74 428.81 C 586.73 410.15 590.53 391.45 594.48 372.78 C 605.95 372.83 617.41 372.82 628.88 372.78 C 627.89 377.10 627.25 381.51 626.06 385.78 C 620.17 386.12 614.26 385.82 608.37 385.90 C 607.79 388.65 607.25 391.42 606.68 394.18 C 612.23 394.16 617.79 394.14 623.35 394.18 C 622.35 398.57 621.52 402.99 620.59 407.39 C 615.04 407.37 609.50 407.37 603.95 407.38 C 603.35 410.11 602.74 412.85 602.17 415.59 C 608.52 415.61 614.87 415.59 621.22 415.62 C 620.29 420.03 619.32 424.42 618.43 428.84 C 606.53 428.81 594.64 428.87 582.74 428.81 Z"
       id="path15" />
    <path
       fill="#fefefe"
       opacity="1.00"
       d=" M 637.94 372.80 C 643.49 372.81 649.05 372.81 654.62 372.79 C 651.62 387.06 648.60 401.32 645.71 415.60 C 652.04 415.59 658.36 415.61 664.69 415.60 C 663.73 419.98 662.81 424.38 662.01 428.80 C 650.09 428.87 638.17 428.84 626.26 428.81 C 630.16 410.14 634.07 391.47 637.94 372.80 Z"
       id="path16" />
    <path
       fill="#fefefe"
       opacity="1.00"
       d=" M 668.90 428.79 C 672.80 410.12 676.69 391.46 680.58 372.79 C 686.08 372.81 691.59 372.81 697.10 372.79 C 694.37 387.10 691.26 401.34 688.28 415.61 C 694.63 415.60 700.99 415.58 707.35 415.62 C 706.42 420.03 705.45 424.43 704.51 428.84 C 692.64 428.80 680.77 428.90 668.90 428.79 Z"
       id="path17" />
    <path
       fill="#fefefe"
       opacity="1.00"
       d=" M 187.85 440.84 C 192.20 436.18 198.81 434.49 204.99 434.40 C 211.13 434.17 217.20 435.51 222.94 437.58 C 222.09 442.07 221.14 446.53 220.23 451.00 C 215.09 448.43 209.10 445.67 203.29 447.46 C 200.50 448.29 199.67 452.17 201.95 454.02 C 206.48 457.88 212.75 459.63 216.29 464.67 C 221.74 472.61 218.86 484.83 210.21 489.23 C 200.02 494.33 187.58 493.13 177.49 488.35 C 178.40 483.72 179.32 479.09 180.31 474.49 C 185.64 478.05 192.16 481.02 198.68 479.35 C 202.06 478.48 202.14 473.35 199.26 471.79 C 194.48 468.63 188.35 466.95 185.20 461.78 C 181.49 455.25 182.48 446.20 187.85 440.84 Z"
       id="path18" />
    <path
       fill="#fefefe"
       opacity="1.00"
       d=" M 234.51 435.26 C 242.66 435.32 250.82 435.16 258.97 435.33 C 265.21 435.49 271.99 438.32 274.66 444.32 C 278.16 452.97 275.50 464.20 267.35 469.28 C 260.21 474.03 251.31 473.51 243.12 473.47 C 242.04 479.50 240.70 485.48 239.43 491.47 C 233.90 491.47 228.37 491.48 222.84 491.46 C 226.70 472.72 230.61 453.99 234.51 435.26 M 248.67 447.24 C 247.70 451.97 246.78 456.71 245.75 461.43 C 248.45 461.29 251.27 461.63 253.86 460.70 C 258.26 459.04 260.08 452.65 256.91 449.09 C 254.63 447.15 251.44 447.51 248.67 447.24 Z"
       id="path19" />
    <path
       fill="#fefefe"
       opacity="1.00"
       d=" M 299.47 435.71 C 307.46 433.63 316.69 433.57 323.79 438.30 C 329.37 441.95 332.52 448.45 333.19 454.96 C 334.26 465.31 331.23 476.34 323.94 483.94 C 317.06 491.00 306.55 493.43 296.99 492.17 C 290.07 491.27 283.50 487.03 280.50 480.63 C 272.86 464.13 281.26 440.84 299.47 435.71 M 304.37 449.58 C 299.09 451.70 296.77 457.55 295.80 462.76 C 295.15 467.00 294.94 471.83 297.61 475.47 C 300.43 478.83 305.84 478.68 309.18 476.15 C 313.12 473.22 314.67 468.22 315.40 463.57 C 315.86 459.73 315.97 455.48 313.83 452.08 C 311.82 449.03 307.61 448.52 304.37 449.58 Z"
       id="path20" />
    <path
       fill="#fefefe"
       opacity="1.00"
       d=" M 347.38 435.26 C 355.26 435.31 363.15 435.18 371.03 435.32 C 376.60 435.52 382.71 437.17 386.17 441.87 C 390.41 447.84 388.83 456.74 383.47 461.51 C 380.57 464.31 376.67 465.66 372.85 466.65 C 375.80 468.38 378.58 470.76 379.56 474.17 C 381.19 479.85 382.06 485.72 383.41 491.47 C 377.51 491.47 371.61 491.48 365.71 491.46 C 364.57 486.13 364.47 480.53 362.54 475.40 C 361.65 472.81 358.87 472.11 356.58 471.29 C 355.08 477.99 353.71 484.73 352.35 491.47 C 346.80 491.47 341.25 491.49 335.69 491.45 C 339.54 472.71 343.45 453.98 347.38 435.26 M 361.69 446.79 C 360.78 451.16 359.77 455.52 358.78 459.87 C 362.10 459.66 366.12 460.39 368.67 457.70 C 371.23 455.50 371.42 451.23 369.34 448.66 C 367.37 446.60 364.25 447.13 361.69 446.79 Z"
       id="path21" />
    <path
       fill="#fefefe"
       opacity="1.00"
       d=" M 396.92 435.29 C 412.87 435.25 428.83 435.25 444.79 435.29 C 443.92 439.71 442.96 444.12 442.04 448.53 C 436.80 448.53 431.57 448.52 426.33 448.53 C 423.44 462.86 420.43 477.17 417.43 491.47 C 411.85 491.48 406.27 491.47 400.69 491.47 C 403.75 477.17 406.66 462.85 409.62 448.53 C 404.47 448.52 399.32 448.52 394.18 448.53 C 395.01 444.10 396.02 439.70 396.92 435.29 Z"
       id="path22" />
  </g>
  <g
     id="#284381ff">
    <path
       fill="#284381"
       opacity="1.00"
       d=" M 553.53 384.01 C 556.12 384.15 558.81 383.95 561.31 384.82 C 564.50 386.33 564.18 391.57 561.31 393.30 C 558.34 395.20 554.61 394.48 551.28 394.68 C 552.01 391.11 552.74 387.55 553.53 384.01 Z"
       id="path57" />
  </g>
  <g
     id="#ec3237ff">
    <path
       fill="#ec3237"
       opacity="1.00"
       d=" M 197.96 397.36 C 212.74 395.49 227.51 393.51 242.30 391.67 C 239.95 395.13 237.31 398.38 234.66 401.62 L 234.30 401.66 C 218.44 403.64 202.59 405.74 186.74 407.79 C 175.88 409.34 164.65 411.27 155.22 417.23 C 147.27 422.18 141.29 429.70 136.89 437.87 C 129.55 451.27 122.09 464.60 114.85 478.05 L 114.73 478.27 C 107.50 480.94 100.51 484.23 93.12 486.45 C 94.34 482.59 96.33 479.05 98.33 475.56 C 104.20 465.33 109.54 454.81 115.55 444.66 C 120.40 434.98 126.22 425.60 134.10 418.09 C 141.24 411.29 150.13 406.47 159.58 403.75 C 172.08 400.11 185.12 399.15 197.96 397.36 Z"
       id="path58" />
  </g>
  <g
     id="#fdcc2aff">
    <path
       fill="#fdcc2a"
       opacity="1.00"
       d=" M 186.74 407.79 C 202.59 405.74 218.44 403.64 234.30 401.66 C 232.11 404.66 229.69 407.50 227.30 410.35 C 213.87 411.99 200.46 413.82 187.03 415.57 C 179.21 416.66 171.23 418.82 164.93 423.80 C 160.30 427.28 156.93 432.11 154.01 437.04 C 147.40 448.17 140.76 459.27 134.15 470.40 C 127.75 473.03 121.35 475.68 114.85 478.05 C 122.09 464.60 129.55 451.27 136.89 437.87 C 141.29 429.70 147.27 422.18 155.22 417.23 C 164.65 411.27 175.88 409.34 186.74 407.79 Z"
       id="path59" />
  </g>
  <g
     id="#028f4fff">
    <path
       fill="#028f4f"
       opacity="1.00"
       d=" M 187.03 415.57 C 200.46 413.82 213.87 411.99 227.30 410.35 C 223.24 414.96 219.95 422.03 213.00 422.37 C 203.13 423.77 193.03 424.10 183.42 426.86 C 173.13 430.41 167.91 440.71 163.26 449.75 C 160.54 454.57 158.45 460.62 152.95 462.94 C 146.74 465.54 140.42 467.91 134.15 470.40 C 140.76 459.27 147.40 448.17 154.01 437.04 C 156.93 432.11 160.30 427.28 164.93 423.80 C 171.23 418.82 179.21 416.66 187.03 415.57 Z"
       id="path60" />
  </g>
  <g
     id="#27447fff">
    <path
       fill="#27447f"
       opacity="1.00"
       d=" M 248.67 447.24 C 251.44 447.51 254.63 447.15 256.91 449.09 C 260.08 452.65 258.26 459.04 253.86 460.70 C 251.27 461.63 248.45 461.29 245.75 461.43 C 246.78 456.71 247.70 451.97 248.67 447.24 Z"
       id="path61" />
  </g>
  <g
     id="#284480ff">
    <path
       fill="#284480"
       opacity="1.00"
       d=" M 361.69 446.79 C 364.25 447.13 367.37 446.60 369.34 448.66 C 371.42 451.23 371.23 455.50 368.67 457.70 C 366.12 460.39 362.10 459.66 358.78 459.87 C 359.77 455.52 360.78 451.16 361.69 446.79 Z"
       id="path62" />
  </g>
  <text
     xml:space="preserve"
     transform="matrix(0.63475819,0,0,0.63475819,-5.3478237,99.572)"
     id="text62"
     style="font-size:40px;line-height:1.25;font-family:sans-serif;white-space:pre;shape-inside:url(#rect62);display:inline;fill:#5e6a82;fill-opacity:1"><tspan
       x="407.41211"
       y="413.1397"
       id="tspan4"><tspan
         style="font-style:italic;-inkscape-font-specification:'sans-serif Italic'"
         id="tspan1">FEDERAÇÃO </tspan><tspan
         style="font-style:italic;font-weight:bold;-inkscape-font-specification:'sans-serif Bold Italic'"
         id="tspan2">PERNAMBUCANA</tspan><tspan
         style="font-style:italic;-inkscape-font-specification:'sans-serif Italic'"
         id="tspan3"> DE</tspan></tspan></text>
</svg>
