<?xml version="1.0" encoding="UTF-8" ?>
<!DOCTYPE svg PUBLIC "-//W3C//DTD SVG 1.1//EN" "http://www.w3.org/Graphics/SVG/1.1/DTD/svg11.dtd">
<svg width="700pt" height="279pt" viewBox="0 0 700 279" version="1.1" xmlns="http://www.w3.org/2000/svg">
<g id="#ffffffff">
<path fill="#ffffff" opacity="1.00" d=" M 317.92 65.00 C 320.99 63.89 325.27 65.61 325.20 69.32 C 323.42 68.29 322.21 65.96 319.95 66.06 C 313.86 65.77 313.94 77.12 320.00 76.85 C 322.84 77.03 323.24 73.61 325.37 72.47 C 325.54 75.93 322.33 78.77 318.95 78.12 C 312.52 77.46 312.06 66.86 317.92 65.00 Z" />
<path fill="#ffffff" opacity="1.00" d=" M 331.54 64.86 C 336.37 63.44 340.31 68.62 339.02 73.09 C 338.61 77.31 333.25 79.54 329.81 77.28 C 325.22 74.51 326.12 66.09 331.54 64.86 M 332.07 66.14 C 326.43 67.32 327.70 78.01 333.88 76.79 C 339.84 75.80 338.45 64.59 332.07 66.14 Z" />
<path fill="#ffffff" opacity="1.00" d=" M 403.27 69.79 C 401.90 66.33 405.91 64.09 408.85 64.74 C 411.16 64.78 412.23 67.08 412.77 68.99 C 410.35 67.79 407.94 64.33 405.14 66.94 C 403.20 72.00 412.90 69.17 412.98 73.95 C 413.26 79.56 403.21 79.62 402.63 74.27 C 403.44 72.43 404.45 75.18 405.23 75.61 C 406.70 77.72 411.99 77.23 411.39 73.92 C 409.59 71.21 405.20 72.45 403.27 69.79 Z" />
<path fill="#ffffff" opacity="1.00" d=" M 341.47 64.84 C 341.96 65.00 342.94 65.32 343.42 65.48 C 345.71 68.62 347.64 72.01 349.80 75.25 C 350.37 71.69 350.01 68.09 350.27 64.51 C 350.61 64.75 351.29 65.21 351.63 65.45 C 351.77 69.69 351.65 73.95 351.56 78.20 C 351.09 78.00 350.16 77.59 349.69 77.39 C 347.29 74.21 345.44 70.65 342.98 67.50 C 342.84 71.15 343.05 74.82 342.73 78.46 C 342.43 78.19 341.84 77.66 341.55 77.39 C 341.34 73.21 341.54 69.02 341.47 64.84 Z" />
<path fill="#ffffff" opacity="1.00" d=" M 354.58 65.10 C 357.27 65.03 360.07 64.60 362.68 65.46 C 364.88 66.68 364.20 69.33 363.07 71.02 C 364.36 72.35 365.43 74.44 364.16 76.17 C 361.90 79.04 357.72 77.50 354.60 77.85 C 354.63 73.60 354.64 69.35 354.58 65.10 M 356.20 66.35 C 356.19 67.78 356.18 69.20 356.19 70.63 C 358.27 70.58 360.35 70.46 362.43 70.29 C 362.44 69.34 362.44 68.40 362.40 67.46 C 360.96 65.62 358.22 66.68 356.20 66.35 M 356.19 71.88 C 356.18 73.43 356.18 74.97 356.20 76.52 C 358.17 76.49 360.16 76.62 362.12 76.29 C 363.19 75.28 363.52 73.65 362.51 72.47 C 360.53 71.57 358.28 72.02 356.19 71.88 Z" />
<path fill="#ffffff" opacity="1.00" d=" M 391.27 65.13 C 391.67 65.09 392.47 65.02 392.86 64.98 C 392.91 67.12 392.98 69.26 393.12 71.39 C 395.99 69.22 397.85 65.10 401.78 64.74 C 400.03 66.65 398.12 68.39 396.25 70.17 C 398.20 72.81 400.23 75.40 401.97 78.19 C 398.27 77.81 397.31 73.53 395.05 71.20 C 392.69 72.74 392.78 75.46 392.80 77.96 C 392.42 77.92 391.67 77.84 391.29 77.80 C 391.32 73.57 391.29 69.35 391.27 65.13 Z" />
<path fill="#ffffff" opacity="1.00" d=" M 466.94 84.71 C 470.49 79.83 475.63 75.32 481.98 75.15 C 487.64 75.13 493.33 75.02 498.99 75.22 C 507.57 76.44 514.75 84.26 515.07 92.95 C 515.23 97.44 515.10 101.94 515.16 106.44 C 513.15 106.45 511.15 106.44 509.15 106.43 C 506.80 115.70 504.46 124.98 502.31 134.30 C 500.46 124.90 497.62 115.74 495.27 106.46 C 491.85 106.45 488.43 106.40 485.02 106.50 C 482.53 115.76 480.11 125.04 477.74 134.34 C 475.82 124.98 473.46 115.72 471.26 106.42 C 468.95 106.41 466.65 106.43 464.35 106.42 C 464.75 99.19 462.84 91.21 466.94 84.71 M 471.16 82.04 L 471.19 82.15 C 470.60 89.37 470.94 96.65 471.00 103.89 C 484.02 104.07 497.04 104.08 510.06 103.87 C 510.16 96.66 510.49 89.40 509.88 82.20 L 509.93 82.05 C 497.00 82.03 484.08 82.04 471.16 82.04 Z" />
<path fill="#ffffff" opacity="1.00" d=" M 521.29 76.15 C 521.20 73.66 524.08 75.19 525.44 75.77 C 528.90 77.72 528.62 83.42 524.95 85.00 C 521.24 87.06 516.21 83.19 517.57 79.05 C 518.12 78.03 517.99 75.61 519.71 76.11 C 518.29 79.19 517.39 83.50 521.94 84.74 C 519.48 82.65 519.69 79.19 520.81 76.53 L 522.28 78.26 L 522.58 79.99 C 522.87 79.93 523.46 79.82 523.75 79.76 C 523.26 79.01 522.28 77.51 521.79 76.77 C 525.66 76.08 525.61 79.43 524.09 81.21 C 524.61 82.08 525.13 82.96 525.66 83.84 C 528.44 80.60 525.95 74.76 521.29 76.15 M 522.07 81.79 C 520.73 82.44 521.80 84.94 523.19 84.12 C 524.48 83.53 523.20 81.54 522.07 81.79 Z" />
<path fill="#ffffff" opacity="1.00" d=" M 471.75 84.10 C 475.81 84.26 479.87 84.16 483.94 84.33 C 492.41 85.13 500.88 83.88 509.37 84.10 C 509.12 90.26 509.35 96.44 509.26 102.60 C 509.00 102.18 508.47 101.35 508.21 100.93 C 508.06 98.30 508.12 95.66 508.13 93.03 C 503.09 95.39 497.99 97.64 492.93 99.97 C 491.47 99.25 489.87 98.78 488.62 100.13 C 483.33 97.92 478.17 95.41 472.97 93.01 C 472.96 95.66 473.02 98.31 472.88 100.96 C 472.62 101.37 472.11 102.17 471.85 102.58 C 471.80 96.42 471.96 90.26 471.75 84.10 M 472.98 84.68 C 472.96 87.41 472.96 90.14 472.96 92.87 C 478.72 90.14 484.57 87.63 490.36 84.98 C 484.57 84.65 478.77 84.73 472.98 84.68 M 491.17 85.06 C 496.67 87.98 502.53 90.15 508.14 92.86 C 508.12 90.13 508.13 87.40 508.12 84.68 C 502.47 84.76 496.80 84.54 491.17 85.06 M 488.24 88.26 C 485.36 89.09 486.49 94.17 483.09 94.00 C 483.71 91.78 485.10 89.91 486.26 87.96 C 482.67 89.67 479.00 91.22 475.41 92.92 C 478.51 94.44 481.70 95.75 484.73 97.41 C 485.01 96.30 485.31 95.18 485.68 94.09 C 486.43 99.53 494.18 98.98 495.78 94.36 C 494.99 94.22 493.40 93.94 492.61 93.80 C 493.46 93.78 495.16 93.72 496.02 93.70 C 495.02 89.59 489.15 90.59 486.24 92.03 C 487.62 88.47 492.70 90.71 495.51 90.56 C 493.76 88.55 490.89 86.80 488.24 88.26 M 494.67 87.99 C 495.65 89.62 496.63 91.28 497.70 92.86 C 496.51 94.62 495.45 96.47 494.28 98.23 C 498.06 96.35 501.92 94.67 505.76 92.93 C 502.06 91.29 498.37 89.62 494.67 87.99 Z" />
<path fill="#ffffff" opacity="1.00" d=" M 342.24 91.59 C 342.89 91.16 343.55 90.74 344.21 90.32 C 344.28 92.03 344.25 93.74 344.41 95.44 C 345.23 95.81 346.86 96.53 347.67 96.90 C 347.59 94.81 347.58 92.72 347.61 90.63 C 349.31 90.70 351.16 90.49 352.52 91.74 C 351.25 92.12 349.97 92.50 348.71 92.89 C 349.47 93.07 351.00 93.42 351.77 93.60 C 351.77 93.80 351.77 94.20 351.77 94.40 C 351.03 94.71 349.54 95.33 348.80 95.65 C 349.58 95.73 351.15 95.89 351.94 95.98 C 351.88 96.36 351.76 97.14 351.70 97.52 C 348.66 97.32 345.62 97.34 342.59 97.46 C 342.59 95.57 342.59 93.68 342.58 91.80 C 341.91 91.99 340.58 92.37 339.92 92.57 C 339.91 94.24 339.90 95.91 339.88 97.58 C 337.01 97.74 338.71 94.02 338.20 92.32 C 337.34 92.32 335.62 92.33 334.76 92.33 C 334.73 94.05 334.72 95.77 334.70 97.49 C 334.24 97.45 333.31 97.36 332.85 97.32 C 332.54 95.45 333.88 91.84 330.98 91.68 C 330.28 91.79 328.87 92.02 328.17 92.13 C 328.87 92.64 330.27 93.66 330.97 94.17 C 330.25 94.42 328.81 94.91 328.09 95.16 C 328.72 95.45 329.97 96.01 330.59 96.30 L 330.53 97.42 C 329.50 97.42 327.44 97.41 326.42 97.41 C 326.46 95.19 326.46 92.97 326.41 90.75 C 331.66 91.31 337.24 89.66 342.24 91.59 Z" />
<path fill="#ffffff" opacity="1.00" d=" M 370.10 97.42 C 370.78 95.28 368.77 91.23 371.49 90.39 C 372.41 92.05 371.96 94.02 372.10 95.83 C 372.64 95.85 373.71 95.90 374.24 95.92 L 374.26 97.45 C 372.87 97.44 371.48 97.43 370.10 97.42 Z" />
<path fill="#ffffff" opacity="1.00" d=" M 398.30 90.58 C 400.01 90.71 401.72 90.95 403.38 91.44 C 405.17 90.57 407.44 90.26 409.18 91.41 C 406.35 92.19 407.34 95.11 407.14 97.26 C 406.71 97.32 405.86 97.46 405.43 97.52 C 405.11 95.53 406.02 92.92 403.91 91.64 C 403.30 92.79 402.67 93.93 402.04 95.07 C 402.41 95.73 403.15 97.04 403.52 97.70 C 402.98 97.52 401.90 97.17 401.36 96.99 L 400.51 95.50 C 399.88 96.27 399.65 97.55 398.53 97.76 C 397.94 95.41 398.26 92.97 398.30 90.58 Z" />
<path fill="#ffffff" opacity="1.00" d=" M 319.61 97.87 C 319.41 95.44 319.28 92.98 319.61 90.56 L 321.03 90.80 C 321.14 91.46 321.36 92.76 321.47 93.42 C 322.52 92.05 323.53 90.50 325.48 90.40 C 324.74 91.62 323.91 92.77 323.22 94.01 C 324.00 95.31 324.93 96.50 325.78 97.76 C 323.66 97.93 322.64 96.10 321.47 94.76 C 321.32 96.09 320.92 97.33 319.61 97.87 Z" />
<path fill="#ffffff" opacity="1.00" d=" M 353.14 90.58 C 354.83 90.62 356.52 90.82 358.10 91.51 C 357.98 93.34 358.66 95.24 358.09 97.03 C 356.39 97.55 354.61 97.49 352.87 97.57 C 352.92 95.24 353.01 92.91 353.14 90.58 M 355.09 92.17 C 354.74 93.37 354.33 96.41 356.23 96.27 C 356.71 94.98 356.08 93.40 355.61 92.15 L 355.09 92.17 Z" />
<path fill="#ffffff" opacity="1.00" d=" M 359.60 90.70 C 360.63 90.70 362.68 90.70 363.71 90.70 L 363.88 92.21 C 363.14 92.27 361.65 92.40 360.90 92.46 C 362.07 93.05 363.27 93.62 364.43 94.26 C 363.53 94.52 361.72 95.03 360.81 95.29 C 361.56 95.51 363.06 95.95 363.81 96.17 L 363.84 97.49 C 362.77 97.47 360.64 97.45 359.57 97.44 C 359.55 95.19 359.55 92.95 359.60 90.70 Z" />
<path fill="#ffffff" opacity="1.00" d=" M 364.89 97.46 C 365.26 95.14 364.15 92.18 365.87 90.31 C 367.89 91.19 366.54 94.03 366.96 95.78 C 367.56 95.82 368.75 95.89 369.34 95.93 L 369.41 97.47 C 367.90 97.47 366.39 97.46 364.89 97.46 Z" />
<path fill="#ffffff" opacity="1.00" d=" M 378.09 92.11 C 378.58 89.86 381.84 90.21 382.81 91.95 C 381.98 91.99 380.31 92.08 379.47 92.12 C 380.64 93.24 383.54 93.84 382.66 96.00 C 381.87 98.38 378.25 97.96 377.26 95.86 C 378.31 95.89 380.43 95.96 381.48 95.99 C 380.41 94.70 377.78 94.17 378.09 92.11 Z" />
<path fill="#ffffff" opacity="1.00" d=" M 383.85 90.65 C 386.28 90.19 388.14 90.89 389.42 92.76 C 388.48 92.60 386.60 92.28 385.66 92.11 C 385.61 92.47 385.49 93.19 385.43 93.55 C 386.87 93.57 388.32 93.59 389.76 93.66 C 390.19 90.36 394.92 89.42 396.48 92.35 C 398.19 94.98 395.25 98.42 392.39 97.49 C 390.63 97.23 390.10 95.39 389.39 94.05 C 388.21 94.58 387.02 95.09 385.83 95.57 C 385.50 96.67 385.34 98.34 383.93 97.09 C 383.72 94.95 383.82 92.80 383.85 90.65 M 392.26 92.42 C 390.66 93.40 391.75 96.83 393.93 95.89 C 396.51 95.35 394.67 90.61 392.26 92.42 Z" />
<path fill="#ffffff" opacity="1.00" d=" M 53.08 95.20 C 57.17 93.51 61.68 94.19 65.98 94.07 C 70.63 94.25 75.58 93.35 79.93 95.43 C 85.11 97.77 88.66 103.28 88.56 108.97 C 88.61 114.45 88.61 119.93 88.55 125.41 C 88.92 125.80 89.66 126.59 90.03 126.98 C 86.74 131.04 83.73 135.40 79.96 139.03 C 75.47 140.75 70.38 139.82 65.92 141.65 C 59.84 144.46 60.42 153.81 53.61 155.52 C 46.37 158.38 39.13 161.22 31.88 164.07 C 31.51 163.59 30.77 162.63 30.40 162.15 C 32.95 156.18 36.83 150.84 39.48 144.91 C 40.01 142.24 39.60 139.44 40.40 136.80 C 40.96 134.15 42.76 131.79 42.50 128.99 C 42.51 122.70 42.45 116.40 42.50 110.11 C 42.61 103.61 47.00 97.47 53.08 95.20 M 56.55 102.58 C 52.89 103.49 50.89 107.38 51.15 110.96 C 50.96 114.22 52.12 118.84 55.93 119.33 C 61.45 117.73 67.28 117.31 72.90 118.66 C 75.71 119.55 79.49 118.69 80.28 115.48 C 80.89 111.82 81.70 107.21 78.53 104.46 C 75.73 101.69 71.55 102.31 67.98 102.26 C 64.18 102.41 60.31 101.90 56.55 102.58 M 66.56 130.81 C 60.44 131.65 53.68 132.42 49.04 136.96 C 42.17 143.42 39.25 152.73 34.29 160.55 C 35.83 159.94 37.37 159.32 38.92 158.71 C 42.71 152.25 45.64 145.21 50.22 139.24 C 56.63 131.85 67.12 131.86 76.05 130.53 C 79.19 129.87 82.75 130.34 85.54 128.55 C 79.18 128.97 72.90 130.15 66.56 130.81 M 57.46 136.74 C 49.84 141.13 47.47 150.25 42.99 157.25 C 44.06 156.67 45.35 156.38 46.24 155.51 C 49.85 150.28 52.33 144.27 56.46 139.42 C 63.37 132.84 73.70 134.85 82.18 132.25 C 73.97 133.85 65.32 133.68 57.46 136.74 M 61.84 138.62 C 56.18 142.06 54.17 148.90 50.49 154.09 C 51.90 153.55 53.34 153.07 54.67 152.35 C 57.15 148.82 58.45 144.46 61.63 141.44 C 64.23 139.29 67.57 138.21 70.90 137.87 C 73.95 137.41 77.41 137.82 79.89 135.60 C 73.87 136.46 67.60 136.53 61.84 138.62 Z" />
<path fill="#ffffff" opacity="1.00" d=" M 490.25 100.24 C 490.81 100.80 490.81 100.80 490.25 100.24 Z" />
<path fill="#ffffff" opacity="1.00" d=" M 340.57 117.07 C 341.43 109.48 348.30 103.71 355.77 103.21 C 355.83 105.77 355.83 108.34 355.90 110.91 C 352.13 111.86 348.05 114.63 348.33 118.99 C 348.64 122.37 348.61 126.80 352.02 128.68 C 354.74 128.62 357.25 127.24 359.97 126.97 C 365.06 126.02 370.11 127.45 374.97 128.84 C 378.58 127.66 378.51 123.11 379.10 120.03 C 379.72 115.74 376.18 112.12 372.25 111.11 C 372.24 108.47 372.25 105.83 372.33 103.19 C 379.02 104.15 385.31 108.94 386.58 115.80 C 387.57 123.51 387.11 131.34 386.40 139.05 C 386.64 141.24 387.95 143.17 388.59 145.28 C 386.73 144.59 385.17 143.37 383.49 142.37 C 380.73 141.27 377.49 141.68 374.99 139.91 C 373.70 139.13 372.30 138.56 370.91 138.02 C 370.56 138.67 369.86 139.96 369.51 140.61 C 368.59 140.63 367.68 140.65 366.77 140.67 C 367.64 140.21 369.38 139.29 370.26 138.83 C 369.20 137.82 367.92 137.39 366.41 137.54 C 366.95 136.88 367.50 136.21 368.04 135.54 C 367.05 134.09 366.26 132.52 365.60 130.90 C 364.96 131.89 364.33 132.88 363.71 133.88 C 362.43 133.89 361.16 133.89 359.90 133.89 C 358.01 134.82 355.93 135.14 353.88 135.46 C 353.83 133.64 353.82 131.80 353.43 130.00 C 351.83 130.55 350.24 131.12 348.66 131.72 C 347.99 131.54 346.64 131.19 345.97 131.01 C 346.46 132.38 346.97 133.75 347.52 135.11 C 346.35 135.53 345.17 135.93 343.99 136.31 C 343.70 135.83 343.11 134.85 342.81 134.36 C 342.24 134.44 341.10 134.59 340.53 134.66 C 340.16 128.81 340.15 122.92 340.57 117.07 Z" />
<path fill="#ffffff" opacity="1.00" d=" M 391.88 103.22 C 396.99 104.99 400.57 109.54 401.50 114.82 C 397.20 112.00 394.43 107.56 391.88 103.22 Z" />
<path fill="#ffffff" opacity="1.00" d=" M 325.99 115.75 C 326.81 110.46 330.35 105.99 335.33 104.00 C 332.87 108.37 330.19 112.84 325.99 115.75 Z" />
<path fill="#ffffff" opacity="1.00" d=" M 358.26 107.45 C 360.14 106.08 362.12 104.87 364.11 103.66 C 366.08 104.90 368.05 106.15 369.98 107.46 C 368.00 108.74 366.03 110.04 364.06 111.34 C 362.13 110.04 360.18 108.76 358.26 107.45 Z" />
<path fill="#ffffff" opacity="1.00" d=" M 538.44 126.99 C 543.50 120.33 547.84 113.12 552.99 106.54 C 557.74 106.34 562.50 106.53 567.26 106.52 C 562.28 113.39 557.01 120.06 551.91 126.84 C 551.16 127.74 550.48 129.03 551.56 129.97 C 557.21 137.49 563.27 144.70 568.94 152.21 C 563.76 152.28 558.58 152.13 553.40 152.27 C 548.32 145.50 543.58 138.48 538.42 131.77 C 538.35 138.58 538.42 145.39 538.42 152.20 C 534.32 152.15 530.22 152.16 526.13 152.19 C 526.12 136.95 526.15 121.71 526.11 106.47 C 530.21 106.44 534.32 106.46 538.42 106.47 C 538.44 113.31 538.32 120.15 538.44 126.99 Z" />
<path fill="#ffffff" opacity="1.00" d=" M 579.16 106.95 C 586.05 103.96 594.38 105.28 600.50 109.47 C 599.16 112.38 597.85 115.31 596.69 118.30 C 593.28 116.10 589.09 113.57 584.96 115.36 C 582.31 116.24 581.80 120.27 584.31 121.65 C 589.60 124.45 596.83 124.20 600.55 129.56 C 604.72 136.59 602.52 147.21 594.99 151.06 C 586.47 155.46 575.58 153.35 568.71 146.85 C 570.56 143.65 572.50 140.52 574.48 137.40 C 577.82 141.05 582.65 144.88 587.91 143.15 C 591.67 142.15 592.07 136.21 588.53 134.71 C 583.29 132.27 576.49 132.06 572.87 126.98 C 568.83 120.18 571.85 110.18 579.16 106.95 Z" />
<path fill="#ffffff" opacity="1.00" d=" M 609.66 106.46 C 618.97 106.49 628.28 106.49 637.60 106.48 C 637.60 109.80 637.57 113.13 637.57 116.46 C 632.28 116.51 626.99 116.46 621.70 116.47 C 621.68 119.12 621.68 121.76 621.70 124.40 C 626.70 124.37 631.70 124.39 636.71 124.35 C 636.70 127.64 636.73 130.94 636.64 134.24 C 631.67 134.21 626.70 134.21 621.74 134.18 C 621.67 140.20 621.80 146.21 621.73 152.23 C 617.68 152.21 613.63 152.19 609.59 152.25 C 609.65 136.99 609.66 121.72 609.66 106.46 Z" />
<path fill="#ffffff" opacity="1.00" d=" M 140.64 109.17 C 140.89 107.70 142.76 108.80 143.70 108.46 C 143.10 110.15 142.73 111.90 142.56 113.69 C 143.20 114.83 143.77 116.01 144.26 117.24 C 143.11 116.32 142.65 114.17 140.85 114.43 C 139.58 115.10 138.75 116.31 137.69 117.23 C 138.83 114.62 141.57 112.26 140.64 109.17 M 141.35 113.35 C 141.67 113.67 141.67 113.67 141.35 113.35 Z" />
<path fill="#ffffff" opacity="1.00" d=" M 94.40 109.71 C 95.59 109.88 96.78 110.06 97.97 110.26 C 96.02 110.30 94.15 110.56 93.98 112.90 C 94.79 113.08 96.42 113.42 97.23 113.60 C 96.46 113.64 94.92 113.73 94.16 113.77 C 93.74 114.98 93.36 116.22 92.76 117.36 C 93.04 114.76 93.65 112.21 94.40 109.71 Z" />
<path fill="#ffffff" opacity="1.00" d=" M 99.76 110.09 C 100.97 110.06 102.18 110.00 103.39 110.04 C 101.29 110.08 99.86 111.05 99.51 113.18 C 100.37 113.21 102.08 113.26 102.93 113.29 C 101.55 113.84 99.82 113.79 98.86 115.11 C 99.74 115.50 101.51 116.27 102.39 116.66 C 101.03 116.71 99.67 116.72 98.31 116.78 C 98.86 114.56 99.30 112.32 99.76 110.09 Z" />
<path fill="#ffffff" opacity="1.00" d=" M 113.57 109.76 C 114.78 109.87 116.00 109.98 117.21 110.12 C 115.38 110.29 113.53 110.50 113.24 112.69 C 114.04 112.90 115.63 113.31 116.42 113.51 C 114.53 113.56 112.59 113.66 112.61 116.04 C 113.53 116.16 115.36 116.40 116.27 116.52 C 114.82 116.73 113.35 116.81 111.89 116.92 C 112.45 114.53 113.01 112.14 113.57 109.76 Z" />
<path fill="#ffffff" opacity="1.00" d=" M 131.72 113.62 C 131.67 110.26 135.55 109.05 138.17 110.31 C 136.58 110.56 134.63 110.01 133.35 111.26 C 131.98 112.56 132.21 114.65 133.07 116.16 C 134.34 116.45 135.66 116.38 136.96 116.40 C 135.11 116.60 134.40 117.48 134.82 119.02 L 135.32 119.52 C 145.55 119.54 155.79 119.46 166.03 119.49 C 165.66 121.20 165.30 122.92 164.92 124.63 C 162.95 124.62 160.98 124.62 159.01 124.61 C 157.90 130.03 156.75 135.44 155.66 140.86 C 153.48 140.86 151.30 140.86 149.12 140.87 C 150.29 135.46 151.40 130.03 152.53 124.62 C 150.59 124.62 148.65 124.62 146.71 124.62 C 146.42 123.57 148.40 120.87 146.61 120.62 C 146.37 121.61 145.90 123.60 145.67 124.60 C 143.69 124.61 141.71 124.62 139.73 124.62 C 138.58 129.97 137.57 135.35 136.39 140.68 C 134.23 141.02 132.03 140.84 129.86 140.87 C 130.98 135.45 132.13 130.03 133.26 124.61 C 131.45 124.62 129.63 124.63 127.82 124.66 C 127.25 123.65 126.66 122.66 126.08 121.67 C 127.20 126.57 121.44 123.95 118.89 124.64 C 118.70 125.65 118.51 126.65 118.33 127.66 C 120.43 127.66 122.54 127.66 124.65 127.68 C 124.29 129.39 123.93 131.10 123.57 132.81 C 121.46 132.82 119.35 132.82 117.25 132.83 C 117.04 133.78 116.83 134.73 116.62 135.68 C 119.03 135.69 121.43 135.69 123.84 135.70 C 123.50 137.42 123.16 139.13 122.81 140.84 C 118.23 140.88 113.65 140.87 109.08 140.86 C 110.54 133.72 112.08 126.60 113.55 119.46 C 117.80 119.47 122.04 119.47 126.29 119.47 C 126.58 120.82 127.17 122.07 127.86 123.26 C 128.00 122.34 128.30 120.49 128.44 119.56 C 130.04 119.44 131.72 119.69 133.21 118.97 C 134.87 116.76 131.14 115.82 131.72 113.62 Z" />
<path fill="#ffffff" opacity="1.00" d=" M 149.72 109.78 C 152.68 109.65 153.19 113.62 151.68 115.52 C 150.72 117.13 148.65 116.63 147.09 116.80 C 145.08 114.49 146.16 109.71 149.72 109.78 M 146.89 116.28 C 148.28 115.90 150.51 116.66 151.26 115.04 C 152.53 113.26 151.80 109.50 148.97 110.36 C 146.25 111.18 146.88 114.10 146.89 116.28 Z" />
<path fill="#ffffff" opacity="1.00" d=" M 165.11 109.82 C 166.58 109.90 168.07 109.93 169.50 110.31 C 168.16 111.02 165.55 110.48 165.68 112.68 C 166.25 112.77 167.40 112.96 167.98 113.06 L 168.03 113.57 C 167.13 113.99 165.35 114.83 164.45 115.25 C 165.44 115.60 167.41 116.31 168.40 116.66 C 166.81 116.85 165.21 116.90 163.61 116.98 C 164.10 114.59 164.61 112.21 165.11 109.82 Z" />
<path fill="#ffffff" opacity="1.00" d=" M 171.17 109.82 C 172.72 110.05 175.86 109.49 175.34 112.05 C 174.97 112.57 174.24 113.61 173.88 114.13 C 174.13 115.02 174.39 115.91 174.65 116.79 C 174.37 116.83 173.81 116.91 173.54 116.95 C 173.15 116.05 172.37 114.25 171.98 113.35 C 171.66 114.25 171.01 116.06 170.69 116.96 C 170.44 116.94 169.93 116.89 169.68 116.86 C 170.17 114.52 170.67 112.17 171.17 109.82 M 172.11 111.18 C 171.58 112.83 172.13 113.37 173.74 112.78 C 174.27 111.11 173.73 110.58 172.11 111.18 Z" />
<path fill="#ffffff" opacity="1.00" d=" M 217.45 114.96 C 216.54 111.77 219.54 109.52 222.45 109.64 C 222.80 109.91 223.49 110.45 223.83 110.72 C 221.99 111.00 219.10 110.49 218.69 112.98 C 217.63 115.85 220.99 115.88 222.74 116.77 C 223.18 116.48 224.06 115.91 224.49 115.62 C 225.15 114.21 225.73 112.77 226.24 111.30 C 226.76 112.44 227.24 113.59 227.77 114.74 C 228.06 114.13 228.65 112.90 228.94 112.29 L 227.87 113.02 C 227.73 112.27 227.44 110.77 227.30 110.02 L 228.98 109.87 C 229.38 112.41 229.85 114.94 230.03 117.51 C 229.33 116.68 228.68 115.81 228.08 114.90 C 226.69 114.98 225.50 115.52 224.76 116.72 C 222.35 116.78 218.46 118.05 217.45 114.96 Z" />
<path fill="#ffffff" opacity="1.00" d=" M 260.40 109.73 C 261.59 109.90 262.78 110.07 263.97 110.25 C 262.02 110.05 260.66 110.75 259.90 112.36 C 260.71 112.70 262.33 113.38 263.14 113.71 C 262.06 113.70 260.98 113.69 259.91 113.67 C 259.82 114.25 259.62 115.40 259.53 115.98 C 260.33 116.18 261.94 116.59 262.74 116.80 C 261.31 116.86 259.87 116.85 258.45 116.78 C 259.19 114.45 259.73 112.08 260.40 109.73 Z" />
<path fill="#ffffff" opacity="1.00" d=" M 401.90 108.67 C 406.14 111.98 407.11 117.67 406.42 122.74 C 403.80 118.50 403.52 113.32 401.90 108.67 Z" />
<path fill="#ffffff" opacity="1.00" d=" M 105.48 110.16 C 107.07 110.58 109.76 109.49 110.30 111.62 C 110.80 113.35 110.22 115.57 108.50 116.39 C 107.09 116.74 105.62 116.79 104.19 116.95 C 104.63 114.69 105.06 112.42 105.48 110.16 M 105.98 110.71 C 105.66 112.59 105.33 114.47 105.01 116.35 C 106.67 115.94 109.35 116.26 109.68 113.99 C 109.66 113.23 109.62 111.73 109.60 110.98 C 108.69 110.91 106.88 110.78 105.98 110.71 Z" />
<path fill="#ffffff" opacity="1.00" d=" M 119.26 110.17 C 120.53 110.30 121.80 110.42 123.07 110.52 C 122.69 111.70 122.36 112.94 121.45 113.85 C 121.60 114.73 121.90 116.47 122.05 117.35 C 121.25 115.94 120.63 114.42 119.58 113.17 C 119.14 114.59 118.65 116.01 118.11 117.41 C 118.15 114.95 118.74 112.56 119.26 110.17 M 120.49 113.32 C 122.28 112.52 122.34 111.65 120.68 110.72 C 119.50 111.53 119.44 112.40 120.49 113.32 Z" />
<path fill="#ffffff" opacity="1.00" d=" M 123.77 117.19 C 124.83 114.43 126.11 111.72 127.96 109.40 C 128.58 111.84 128.87 114.34 129.52 116.78 C 129.37 116.74 129.09 116.67 128.94 116.63 C 128.64 115.30 127.73 114.53 126.22 114.32 C 125.41 115.28 124.60 116.24 123.77 117.19 M 127.07 112.29 C 125.60 115.25 130.06 112.53 127.07 112.29 Z" />
<path fill="#ffffff" opacity="1.00" d=" M 158.14 110.02 C 159.51 110.07 160.88 110.14 162.25 110.21 C 162.55 111.79 162.51 113.93 160.41 114.11 C 158.13 114.20 158.16 117.07 155.99 117.46 C 157.25 115.16 157.63 112.55 158.14 110.02 M 159.14 111.34 C 158.64 113.04 159.18 113.57 160.77 112.93 C 161.30 111.25 160.76 110.72 159.14 111.34 Z" />
<path fill="#ffffff" opacity="1.00" d=" M 178.26 109.97 C 180.54 109.54 180.46 113.78 181.79 114.98 C 182.46 113.05 182.51 110.76 184.13 109.29 C 183.85 112.07 183.21 114.81 182.41 117.49 C 180.90 115.81 180.04 113.69 178.97 111.73 C 178.54 113.46 178.16 115.20 177.76 116.94 C 177.49 116.92 176.93 116.87 176.65 116.85 C 177.17 114.55 177.53 112.22 178.26 109.97 Z" />
<path fill="#ffffff" opacity="1.00" d=" M 188.13 110.26 L 189.93 109.74 C 190.35 112.30 190.77 114.87 191.12 117.45 C 190.61 116.97 189.57 116.02 189.05 115.54 C 187.16 114.73 185.92 116.37 184.46 117.24 C 185.40 115.27 186.69 113.45 187.20 111.30 C 187.75 112.20 187.87 113.49 188.84 114.06 C 189.93 112.86 188.37 111.50 188.13 110.26 Z" />
<path fill="#ffffff" opacity="1.00" d=" M 194.49 109.58 C 196.09 110.09 196.33 111.84 196.97 113.16 C 198.17 111.76 199.19 110.07 201.07 109.49 C 200.66 111.98 200.13 114.45 199.59 116.92 C 199.32 116.90 198.76 116.86 198.49 116.83 C 198.87 115.15 199.23 113.46 199.60 111.78 C 198.49 112.96 197.42 114.17 196.31 115.34 L 195.77 112.32 C 194.62 113.95 194.30 116.05 192.90 117.52 C 193.21 114.83 193.86 112.20 194.49 109.58 Z" />
<path fill="#ffffff" opacity="1.00" d=" M 204.18 110.16 C 206.65 108.98 208.75 110.98 207.18 113.37 C 208.46 116.71 204.64 117.20 202.31 117.05 C 202.58 115.32 202.84 113.59 202.94 111.85 C 203.34 111.76 204.14 111.57 204.54 111.48 L 204.59 113.70 C 205.41 112.83 206.20 111.94 206.97 111.03 C 205.34 111.82 204.41 111.53 204.18 110.16 M 204.09 114.14 C 203.48 115.74 204.03 116.25 205.72 115.69 C 206.31 114.08 205.77 113.56 204.09 114.14 Z" />
<path fill="#ffffff" opacity="1.00" d=" M 211.97 117.09 C 208.25 116.76 209.41 111.01 211.62 109.52 C 211.35 111.53 210.89 113.52 210.78 115.56 C 215.16 117.54 213.16 110.80 215.99 109.36 C 215.28 111.98 215.79 116.92 211.97 117.09 Z" />
<path fill="#ffffff" opacity="1.00" d=" M 231.91 117.52 C 232.26 114.68 232.81 111.84 233.88 109.17 C 235.10 110.94 236.06 112.87 237.11 114.74 C 237.58 112.92 238.09 111.12 238.66 109.33 C 240.06 111.90 238.00 114.85 237.60 117.47 C 236.04 115.86 235.31 113.69 234.38 111.71 C 233.63 113.67 233.60 116.04 231.91 117.52 Z" />
<path fill="#ffffff" opacity="1.00" d=" M 242.93 110.65 C 243.60 109.28 246.64 109.94 245.36 111.57 C 244.70 112.94 242.36 112.18 242.93 110.65 Z" />
<path fill="#ffffff" opacity="1.00" d=" M 252.27 110.06 C 253.79 110.39 255.70 109.83 256.89 111.07 C 257.52 112.85 257.15 115.19 255.45 116.25 C 254.03 116.86 252.43 116.79 250.93 117.05 C 251.38 114.72 251.84 112.39 252.27 110.06 M 252.83 110.57 C 252.44 112.52 252.05 114.48 251.68 116.45 C 253.35 116.02 256.01 116.26 256.39 114.01 C 256.39 113.27 256.38 111.80 256.38 111.06 C 255.49 110.94 253.72 110.69 252.83 110.57 Z" />
<path fill="#ffffff" opacity="1.00" d=" M 321.24 126.63 C 321.02 120.80 320.26 113.75 325.54 109.75 C 323.95 114.42 323.14 119.29 321.91 124.05 C 324.48 119.81 328.34 116.67 332.21 113.69 C 330.20 119.22 325.00 122.42 321.24 126.63 Z" />
<path fill="#ffffff" opacity="1.00" d=" M 242.24 112.02 C 242.59 112.82 242.95 113.61 243.30 114.41 C 244.21 113.80 245.12 113.20 246.04 112.60 C 245.94 114.20 246.25 115.87 245.83 117.45 C 245.11 113.18 241.42 115.69 239.71 117.37 C 240.52 115.57 241.45 113.83 242.24 112.02 Z" />
<path fill="#ffffff" opacity="1.00" d=" M 395.61 113.03 C 399.64 115.85 403.11 119.28 406.37 122.94 L 406.54 125.45 C 402.54 121.72 397.40 118.47 395.61 113.03 Z" />
<path fill="#ffffff" opacity="1.00" d=" M 316.35 128.10 C 315.97 124.61 317.17 121.23 318.54 118.10 C 318.84 124.11 319.53 130.10 319.28 136.14 C 320.71 131.24 323.28 126.46 327.77 123.74 C 326.08 129.51 321.58 133.83 319.31 139.35 C 318.32 135.60 316.74 131.98 316.35 128.10 Z" />
<path fill="#ffffff" opacity="1.00" d=" M 104.21 119.43 C 106.75 119.46 109.30 119.46 111.84 119.48 C 109.05 122.89 106.31 126.34 103.52 129.75 C 105.00 133.44 106.45 137.15 107.89 140.86 C 105.25 140.87 102.62 140.87 99.98 140.87 C 98.98 137.61 97.93 134.37 96.91 131.12 C 96.28 134.36 95.57 137.60 94.98 140.86 C 92.78 140.87 90.57 140.87 88.37 140.86 C 89.93 133.74 91.39 126.60 92.88 119.46 C 95.04 119.45 97.21 119.45 99.38 119.46 C 98.71 122.64 98.04 125.82 97.37 129.00 C 99.70 125.85 101.88 122.58 104.21 119.43 Z" />
<path fill="#ffffff" opacity="1.00" d=" M 168.41 119.47 C 170.55 119.47 172.69 119.48 174.84 119.49 C 173.72 124.90 172.61 130.30 171.46 135.70 C 173.86 135.70 176.27 135.70 178.69 135.71 C 178.34 137.43 177.98 139.15 177.63 140.87 C 173.06 140.86 168.49 140.87 163.92 140.86 C 165.42 133.73 166.89 126.59 168.41 119.47 Z" />
<path fill="#ffffff" opacity="1.00" d=" M 184.59 119.48 C 188.99 119.47 193.39 119.48 197.79 119.47 C 197.43 121.19 197.07 122.91 196.70 124.63 C 194.60 124.61 192.49 124.57 190.39 124.62 C 189.65 125.45 189.57 126.62 189.18 127.62 C 191.35 127.67 193.51 127.67 195.68 127.67 C 195.32 129.38 194.97 131.09 194.61 132.81 C 192.54 132.82 190.47 132.74 188.41 132.91 C 188.19 133.60 187.74 134.98 187.52 135.66 C 189.96 135.71 192.41 135.70 194.86 135.70 C 194.52 137.41 194.19 139.13 193.85 140.84 C 189.27 140.88 184.69 140.85 180.11 140.88 C 181.60 133.74 183.10 126.61 184.59 119.48 Z" />
<path fill="#ffffff" opacity="1.00" d=" M 201.14 119.47 C 205.40 119.65 209.79 118.98 213.96 120.07 C 216.81 120.75 218.05 124.37 216.62 126.81 C 215.84 128.42 214.05 128.99 212.49 129.54 C 217.21 130.73 217.20 137.57 213.08 139.51 C 208.00 142.01 202.06 140.42 196.61 140.86 C 198.16 133.74 199.57 126.59 201.14 119.47 M 205.78 128.00 C 207.39 127.82 210.46 127.93 210.31 125.57 C 210.38 123.55 208.05 124.11 206.74 123.93 C 206.30 125.25 206.07 126.63 205.78 128.00 M 204.92 132.05 C 204.61 133.58 204.32 135.11 204.05 136.65 C 206.38 136.70 208.77 136.35 209.77 133.95 C 208.60 132.37 206.80 132.02 204.92 132.05 Z" />
<path fill="#ffffff" opacity="1.00" d=" M 222.13 119.46 C 226.52 119.49 230.90 119.46 235.29 119.49 C 234.94 121.19 234.59 122.90 234.25 124.61 C 231.98 124.62 229.72 124.62 227.46 124.63 C 227.26 125.64 227.07 126.65 226.88 127.67 C 228.98 127.67 231.08 127.67 233.19 127.67 C 232.82 129.38 232.47 131.10 232.12 132.81 C 230.05 132.82 227.97 132.74 225.91 132.93 C 225.59 133.82 225.31 134.73 225.06 135.66 C 227.51 135.70 229.97 135.70 232.43 135.69 C 232.05 137.42 231.68 139.15 231.31 140.88 C 226.74 140.85 222.17 140.87 217.60 140.86 C 219.15 133.73 220.58 126.58 222.13 119.46 Z" />
<path fill="#ffffff" opacity="1.00" d=" M 238.61 119.49 C 240.74 119.47 242.88 119.47 245.02 119.46 C 244.00 124.89 242.79 130.28 241.71 135.70 C 244.09 135.69 246.48 135.69 248.87 135.69 C 248.55 137.41 248.23 139.12 247.92 140.83 C 243.33 140.89 238.73 140.85 234.14 140.87 C 235.62 133.74 237.14 126.62 238.61 119.49 Z" />
<path fill="#ffffff" opacity="1.00" d=" M 254.80 119.50 C 256.91 119.48 259.03 119.47 261.15 119.46 C 260.25 124.90 258.94 130.27 257.92 135.69 C 260.31 135.70 262.71 135.70 265.11 135.71 C 264.75 137.42 264.40 139.14 264.05 140.86 C 259.47 140.86 254.89 140.88 250.32 140.84 C 251.85 133.74 253.33 126.62 254.80 119.50 Z" />
<path fill="#ffffff" opacity="1.00" d=" M 409.01 117.39 C 413.35 123.74 410.70 131.45 408.76 138.12 C 406.07 132.79 401.50 128.43 399.93 122.56 C 404.29 125.32 406.92 129.80 408.72 134.50 C 408.28 128.79 408.73 123.09 409.01 117.39 Z" />
<path fill="#ffffff" opacity="1.00" d=" M 469.64 146.14 C 462.66 139.42 459.81 128.98 462.13 119.60 C 464.70 128.43 467.20 137.28 469.64 146.14 Z" />
<path fill="#ffffff" opacity="1.00" d=" M 517.42 121.37 C 519.63 129.72 516.43 138.64 511.06 145.10 C 512.91 137.12 515.64 129.37 517.42 121.37 Z" />
<path fill="#ffffff" opacity="1.00" d=" M 483.02 152.55 C 485.35 143.99 488.00 135.51 490.15 126.90 C 492.29 135.57 494.88 144.12 497.53 152.64 C 492.70 153.23 487.84 153.11 483.02 152.55 Z" />
<path fill="#ffffff" opacity="1.00" d=" M 408.42 149.35 C 409.00 143.13 411.72 137.50 413.63 131.64 C 414.02 135.82 414.02 140.19 412.39 144.13 C 411.15 147.37 408.88 150.03 406.89 152.82 C 406.47 146.19 403.13 140.16 402.89 133.49 C 406.84 137.80 408.03 143.70 408.42 149.35 Z" />
<path fill="#ffffff" opacity="1.00" d=" M 320.60 152.71 C 315.73 147.45 313.13 140.24 314.35 133.07 C 315.65 138.14 318.43 142.72 319.24 147.94 C 319.31 148.14 319.45 148.55 319.52 148.75 C 319.98 150.04 320.61 151.31 320.60 152.71 Z" />
<path fill="#ffffff" opacity="1.00" d=" M 324.79 134.75 C 324.86 140.40 322.51 145.64 321.63 151.14 C 320.88 148.49 320.31 145.74 320.78 142.99 C 321.60 140.03 323.27 137.39 324.79 134.75 Z" />
<path fill="#ffffff" opacity="1.00" d=" M 69.01 144.21 C 72.73 142.02 77.22 142.95 81.16 143.96 C 80.79 145.74 80.44 147.53 80.12 149.32 C 77.51 148.29 74.54 146.83 72.05 148.96 C 73.62 151.16 76.25 152.11 78.18 153.89 C 80.64 156.78 79.86 161.81 76.52 163.70 C 72.56 165.99 67.66 165.28 63.61 163.58 C 63.98 161.78 64.35 159.98 64.70 158.18 C 66.71 159.13 68.79 160.48 71.13 160.12 C 72.46 159.94 72.97 159.22 72.68 157.97 C 70.92 156.42 68.57 155.70 66.97 153.96 C 64.63 150.94 65.73 146.09 69.01 144.21 Z" />
<path fill="#ffffff" opacity="1.00" d=" M 85.30 143.26 C 89.27 143.43 93.32 142.82 97.22 143.67 C 102.42 145.15 102.47 152.75 98.68 155.77 C 95.92 158.15 92.05 157.79 88.67 158.19 C 88.28 160.36 87.83 162.51 87.40 164.68 C 85.23 164.68 83.06 164.68 80.89 164.69 C 82.30 157.54 83.82 150.40 85.30 143.26 M 90.81 147.96 C 90.51 149.63 90.20 151.29 89.86 152.95 C 90.72 152.93 92.43 152.90 93.28 152.88 C 93.75 151.65 95.06 150.27 94.10 148.96 C 93.45 147.86 91.86 148.33 90.81 147.96 Z" />
<path fill="#ffffff" opacity="1.00" d=" M 109.46 143.57 C 113.55 142.19 118.94 142.62 121.51 146.52 C 125.36 152.88 121.96 162.94 114.43 164.69 C 110.82 165.70 106.37 165.20 103.82 162.21 C 99.28 156.19 102.30 146.05 109.46 143.57 M 111.27 149.25 C 108.52 151.41 107.48 156.38 109.99 159.07 C 113.77 160.88 116.29 156.09 116.19 152.92 C 116.81 150.18 113.78 147.17 111.27 149.25 Z" />
<path fill="#ffffff" opacity="1.00" d=" M 128.17 143.28 C 132.99 143.76 138.82 141.80 142.80 145.34 C 145.88 149.00 142.82 154.45 138.49 155.24 C 141.34 157.53 141.22 161.43 142.04 164.67 C 139.75 164.68 137.47 164.68 135.19 164.69 C 134.48 161.97 135.00 158.26 131.91 156.89 C 131.31 159.48 130.78 162.08 130.27 164.69 C 128.07 164.68 125.87 164.68 123.67 164.66 C 125.26 157.55 126.68 150.41 128.17 143.28 M 133.94 147.91 C 133.02 149.39 133.28 151.27 133.10 152.94 C 134.28 152.35 136.33 152.55 136.79 151.02 C 138.03 149.22 135.74 147.06 133.94 147.91 Z" />
<path fill="#ffffff" opacity="1.00" d=" M 146.98 143.27 C 153.11 143.27 159.25 143.24 165.39 143.30 C 165.02 145.01 164.65 146.73 164.29 148.45 C 162.31 148.44 160.34 148.44 158.36 148.44 C 157.22 153.85 156.11 159.27 154.99 164.69 C 152.79 164.68 150.60 164.68 148.41 164.69 C 149.60 159.28 150.66 153.85 151.83 148.44 C 149.88 148.44 147.94 148.45 146.00 148.44 C 146.31 146.72 146.65 145.00 146.98 143.27 Z" />
<path fill="#ffffff" opacity="1.00" d=" M 324.76 147.37 C 324.95 147.34 325.33 147.30 325.52 147.27 C 326.70 153.67 326.29 160.30 328.16 166.58 C 327.02 165.99 325.87 165.44 324.71 164.93 C 326.34 163.55 325.62 161.62 324.90 159.88 C 324.60 161.27 324.03 162.57 323.31 163.79 C 318.65 159.84 314.16 154.87 313.89 148.42 C 316.55 153.03 320.78 156.44 323.37 161.08 C 325.03 156.76 323.90 151.90 324.76 147.37 Z" />
<path fill="#ffffff" opacity="1.00" d=" M 402.75 146.47 C 404.33 151.15 405.33 156.99 402.64 161.41 L 401.83 161.71 C 401.35 156.67 402.10 151.50 402.75 146.47 Z" />
<path fill="#ffffff" opacity="1.00" d=" M 404.75 160.21 C 407.70 155.62 411.62 151.78 414.33 147.03 C 414.19 153.83 409.47 159.23 404.38 163.18 C 404.47 162.44 404.66 160.95 404.75 160.21 Z" />
<path fill="#ffffff" opacity="1.00" d=" M 338.12 153.87 C 340.72 153.75 343.01 152.53 345.24 151.29 C 345.33 152.60 345.50 153.90 345.73 155.19 C 347.83 156.04 350.04 156.61 352.17 157.38 C 352.33 158.59 352.50 159.81 352.67 161.04 C 353.93 161.54 356.77 160.85 356.61 163.02 C 356.62 165.44 356.10 167.83 356.16 170.26 C 356.89 170.25 358.34 170.24 359.07 170.24 C 359.72 171.18 360.37 172.12 361.05 173.05 C 361.43 174.43 361.86 175.80 362.30 177.17 C 361.24 177.68 360.15 178.10 359.04 178.43 C 353.16 176.47 347.12 173.86 343.26 168.79 C 339.68 164.70 337.95 159.27 338.12 153.87 Z" />
<path fill="#ffffff" opacity="1.00" d=" M 462.69 157.22 C 463.79 154.89 465.28 159.97 465.02 160.25 C 465.61 158.83 466.15 157.36 467.13 156.16 C 467.39 157.15 467.91 159.15 468.17 160.15 C 468.83 158.91 469.71 154.96 471.27 157.82 C 472.93 157.91 474.38 155.80 476.02 156.93 C 479.02 157.83 478.32 163.18 475.01 162.96 C 472.60 163.55 472.03 160.76 470.72 159.60 C 469.48 160.44 469.60 162.15 469.01 163.38 C 468.72 163.06 468.13 162.43 467.83 162.11 C 466.55 159.23 466.09 163.46 464.34 162.87 C 463.65 161.03 463.01 159.15 462.69 157.22 M 473.37 158.36 C 472.42 160.34 473.91 162.86 476.17 161.32 C 477.04 159.26 475.52 157.16 473.37 158.36 Z" />
<path fill="#ffffff" opacity="1.00" d=" M 479.21 156.64 C 480.62 156.76 482.03 156.90 483.45 157.09 C 483.64 158.42 483.43 159.68 482.82 160.87 C 483.04 161.54 483.48 162.86 483.70 163.52 C 482.56 162.82 481.67 161.93 480.72 161.04 C 480.62 161.69 480.42 163.00 480.32 163.65 C 478.24 161.93 479.47 158.95 479.21 156.64 M 480.90 158.18 C 479.30 161.12 484.26 158.42 480.90 158.18 Z" />
<path fill="#ffffff" opacity="1.00" d=" M 484.69 157.34 C 485.24 157.02 485.80 156.71 486.36 156.40 C 486.39 158.02 486.40 159.64 486.40 161.26 C 486.95 161.41 488.06 161.72 488.61 161.87 C 488.86 163.57 485.78 162.52 484.76 163.05 C 484.75 161.15 484.73 159.24 484.69 157.34 Z" />
<path fill="#ffffff" opacity="1.00" d=" M 498.71 156.81 C 499.12 156.78 499.95 156.74 500.36 156.71 C 500.35 157.39 500.33 158.75 500.32 159.43 C 501.29 158.34 502.27 157.18 503.43 156.26 C 503.99 157.67 502.68 158.74 502.24 159.98 C 502.71 160.63 503.65 161.93 504.12 162.58 C 505.68 161.06 504.98 158.71 505.19 156.77 C 509.74 156.88 514.29 156.76 518.85 156.71 C 519.15 156.89 519.75 157.23 520.05 157.40 L 521.11 156.14 C 521.24 157.94 521.27 159.75 521.33 161.55 C 525.02 163.30 524.32 158.83 524.33 156.62 C 525.80 156.77 527.36 156.78 528.62 157.71 C 527.81 157.86 526.19 158.16 525.38 158.31 C 526.14 158.73 527.66 159.58 528.42 160.01 C 527.64 160.25 526.08 160.73 525.30 160.96 C 526.15 161.31 527.85 161.99 528.70 162.33 C 526.96 163.12 525.05 162.89 523.22 162.70 C 522.00 162.80 520.78 162.87 519.57 162.93 C 519.61 161.91 519.69 159.88 519.72 158.87 C 519.02 158.40 518.33 157.94 517.64 157.48 C 517.37 159.51 517.24 161.54 517.03 163.57 L 516.10 162.45 C 515.91 160.98 515.82 159.50 515.71 158.03 C 514.52 158.04 513.34 158.05 512.16 158.06 C 512.21 159.92 512.25 161.77 512.27 163.63 C 509.55 162.55 511.99 158.51 509.60 157.64 C 508.80 157.71 507.21 157.86 506.42 157.94 C 508.12 158.83 507.89 160.13 506.91 161.44 C 507.54 161.76 508.81 162.41 509.44 162.73 C 506.36 162.60 502.12 164.01 500.49 160.47 C 500.39 161.28 500.19 162.90 500.09 163.71 C 497.75 162.15 498.99 159.12 498.71 156.81 Z" />
<path fill="#ffffff" opacity="1.00" d=" M 529.24 156.62 C 530.59 156.80 532.06 156.72 533.30 157.43 C 533.50 159.13 533.76 160.85 533.68 162.57 C 532.19 162.85 530.68 162.92 529.19 163.05 C 529.17 160.91 529.17 158.76 529.24 156.62 M 531.02 158.33 C 531.68 159.05 531.68 159.05 531.02 158.33 Z" />
<path fill="#ffffff" opacity="1.00" d=" M 535.11 156.73 C 536.54 156.80 537.99 156.87 539.43 157.01 C 538.68 157.50 537.17 158.48 536.42 158.97 C 536.92 159.05 537.92 159.20 538.43 159.28 C 538.39 160.53 538.48 161.77 538.68 163.01 C 537.47 162.95 536.27 162.90 535.08 162.85 C 535.08 160.81 535.09 158.77 535.11 156.73 Z" />
<path fill="#ffffff" opacity="1.00" d=" M 540.50 156.47 C 542.67 156.70 541.14 160.01 541.71 161.46 C 542.45 161.56 543.92 161.77 544.66 161.88 C 544.59 160.16 544.57 158.45 544.55 156.73 C 544.99 156.73 545.88 156.73 546.32 156.73 C 546.31 158.22 546.29 159.70 546.29 161.19 C 547.34 161.35 548.19 161.83 548.82 162.63 C 547.32 163.02 545.79 162.80 544.29 162.62 C 542.81 162.77 541.33 162.88 539.86 162.97 C 539.99 160.80 539.56 158.50 540.50 156.47 Z" />
<path fill="#ffffff" opacity="1.00" d=" M 552.68 156.34 C 553.90 156.64 555.11 156.98 556.30 157.39 C 555.49 157.57 553.87 157.94 553.06 158.12 C 555.11 158.97 556.48 160.33 555.80 162.66 C 554.04 162.98 552.27 163.00 550.77 161.89 C 551.81 161.82 553.90 161.68 554.94 161.61 C 554.13 160.96 552.50 159.65 551.68 159.00 C 551.87 158.06 552.32 157.21 552.68 156.34 Z" />
<path fill="#ffffff" opacity="1.00" d=" M 557.18 156.58 C 558.91 156.76 561.07 156.51 561.82 158.60 C 563.48 157.33 565.76 155.41 567.72 157.34 C 569.49 158.39 568.39 160.78 568.44 162.37 C 566.70 162.78 564.85 163.30 563.21 162.30 C 562.51 159.82 560.38 160.00 558.55 161.16 C 558.53 161.68 558.49 162.74 558.47 163.26 C 555.48 162.52 557.32 158.72 557.18 156.58 M 560.43 158.79 C 560.13 158.49 559.55 157.88 559.26 157.58 C 556.35 158.02 559.88 161.69 560.43 158.79 M 564.18 158.12 C 564.23 159.36 564.31 160.60 564.45 161.84 C 564.97 161.72 566.00 161.46 566.51 161.33 C 568.33 159.52 566.25 157.50 564.18 158.12 Z" />
<path fill="#ffffff" opacity="1.00" d=" M 574.47 157.47 C 576.23 156.44 578.28 156.75 580.22 156.86 C 579.70 157.31 578.66 158.22 578.14 158.67 C 578.15 160.03 578.16 161.38 578.19 162.74 C 577.75 162.80 576.88 162.91 576.44 162.96 C 576.07 161.15 577.31 158.41 574.85 157.65 C 574.53 158.45 573.89 160.05 573.57 160.85 C 573.84 161.53 574.39 162.89 574.67 163.58 C 573.51 162.84 572.47 162.03 571.42 161.18 C 571.40 161.76 571.36 162.91 571.33 163.49 C 568.58 162.33 570.33 158.80 569.81 156.58 C 571.40 156.67 572.95 156.97 574.47 157.47 M 571.24 158.07 C 570.72 159.67 571.28 160.23 572.92 159.75 C 573.43 158.12 572.87 157.57 571.24 158.07 Z" />
<path fill="#ffffff" opacity="1.00" d=" M 621.61 157.37 L 621.95 155.86 C 622.94 158.08 622.60 160.54 622.64 162.89 C 622.19 162.87 621.29 162.83 620.85 162.81 C 620.84 161.55 620.83 159.05 620.83 157.80 C 620.25 158.17 619.10 158.92 618.53 159.29 C 618.58 160.27 618.68 162.23 618.73 163.20 C 615.46 162.75 617.93 158.20 615.08 156.71 C 617.27 156.71 619.45 157.01 621.61 157.37 Z" />
<path fill="#ffffff" opacity="1.00" d=" M 624.36 158.01 C 625.16 156.65 626.89 156.67 628.26 156.42 C 628.98 157.25 629.70 158.10 630.42 158.96 L 630.82 158.80 C 631.13 158.22 631.74 157.08 632.05 156.51 C 632.62 156.81 633.77 157.41 634.35 157.72 C 633.36 159.35 633.29 161.28 633.05 163.13 C 632.70 162.93 632.01 162.55 631.66 162.36 C 631.45 162.06 631.03 161.46 630.82 161.16 C 629.44 161.53 628.47 162.78 627.23 163.43 C 626.54 163.12 625.15 162.52 624.46 162.22 C 624.26 160.86 623.18 159.20 624.36 158.01 M 626.96 158.20 C 624.96 158.50 625.70 162.01 627.64 161.40 C 629.20 160.79 628.77 157.90 626.96 158.20 Z" />
<path fill="#ffffff" opacity="1.00" d=" M 636.03 159.53 C 634.92 157.91 636.60 157.08 637.36 156.06 C 637.69 158.44 637.67 160.84 637.57 163.24 C 636.21 162.76 635.03 161.99 634.04 160.94 C 634.70 160.47 635.36 160.00 636.03 159.53 Z" />
<path fill="#ffffff" opacity="1.00" d=" M 390.80 175.57 C 394.83 169.81 395.00 162.35 398.98 156.61 C 398.47 160.83 398.38 165.30 396.34 169.14 C 396.84 169.69 397.33 170.24 397.83 170.80 C 401.85 167.76 406.62 165.77 410.16 162.09 C 408.52 165.58 406.36 168.99 403.04 171.09 C 399.44 173.68 394.96 174.35 390.80 175.57 M 395.79 170.42 C 395.42 170.94 394.70 171.99 394.34 172.52 C 394.88 172.42 395.97 172.24 396.51 172.14 C 397.09 171.23 396.85 170.66 395.79 170.42 Z" />
<path fill="#ffffff" opacity="1.00" d=" M 489.36 156.65 C 491.60 156.71 495.31 156.86 494.86 160.06 C 495.05 163.15 491.44 162.84 489.37 163.16 C 489.36 160.99 489.35 158.82 489.36 156.65 M 491.14 157.59 C 491.14 159.15 491.21 160.70 491.36 162.25 C 492.09 161.55 492.79 160.82 493.47 160.06 C 493.02 158.93 492.25 158.11 491.14 157.59 Z" />
<path fill="#ffffff" opacity="1.00" d=" M 583.13 156.73 C 584.57 156.77 586.02 156.84 587.47 156.94 C 586.51 157.60 585.55 158.25 584.59 158.89 C 585.31 159.10 586.74 159.54 587.46 159.76 C 586.57 160.13 585.68 160.49 584.80 160.83 C 584.77 161.36 584.71 162.41 584.68 162.94 C 584.29 162.92 583.51 162.89 583.12 162.88 C 583.10 160.83 583.11 158.78 583.13 156.73 Z" />
<path fill="#ffffff" opacity="1.00" d=" M 587.80 156.69 C 588.90 156.77 591.12 156.92 592.23 157.00 C 591.19 157.59 590.15 158.18 589.11 158.75 C 589.86 159.02 591.35 159.57 592.10 159.84 C 591.05 160.29 590.01 160.74 588.99 161.21 C 589.65 161.34 590.96 161.62 591.62 161.76 L 591.61 162.87 C 590.64 162.88 588.71 162.90 587.74 162.91 C 587.78 160.83 587.80 158.76 587.80 156.69 Z" />
<path fill="#ffffff" opacity="1.00" d=" M 592.73 156.64 C 594.92 156.62 598.66 156.86 598.26 159.99 C 598.51 163.10 594.81 162.88 592.74 163.26 C 592.71 161.05 592.71 158.84 592.73 156.64 M 594.39 158.13 C 594.40 159.31 594.43 160.50 594.46 161.70 C 594.95 161.58 595.91 161.35 596.40 161.24 C 596.44 160.37 596.49 159.50 596.54 158.64 C 596.00 158.51 594.93 158.25 594.39 158.13 Z" />
<path fill="#ffffff" opacity="1.00" d=" M 599.43 156.66 C 600.54 156.72 602.77 156.84 603.88 156.90 C 603.16 157.36 601.73 158.28 601.01 158.73 C 601.70 159.05 603.09 159.69 603.79 160.00 C 602.99 160.23 601.38 160.68 600.58 160.90 C 601.67 161.37 602.76 161.84 603.87 162.31 C 602.43 162.77 600.97 163.07 599.48 163.23 C 599.41 161.04 599.41 158.85 599.43 156.66 Z" />
<path fill="#ffffff" opacity="1.00" d=" M 605.01 163.61 C 603.77 161.52 604.50 158.98 604.39 156.68 C 605.41 156.72 607.44 156.81 608.46 156.86 C 608.89 158.37 608.65 159.86 607.92 161.24 L 609.30 162.42 C 610.41 160.29 610.17 156.70 613.26 156.37 C 614.09 158.58 614.86 160.82 615.64 163.07 C 612.65 160.57 608.02 165.00 606.14 161.11 C 605.86 161.74 605.29 162.98 605.01 163.61 M 606.11 158.21 C 604.48 161.14 609.46 158.39 606.11 158.21 M 612.10 158.63 C 611.14 159.85 611.35 160.53 612.72 160.67 C 613.65 159.48 613.44 158.80 612.10 158.63 Z" />
<path fill="#ffffff" opacity="1.00" d=" M 329.33 157.50 C 333.65 162.93 333.85 170.38 337.87 176.03 C 333.51 175.25 328.90 174.51 325.28 171.76 C 322.20 169.70 320.05 166.60 318.39 163.36 C 323.57 167.81 329.90 170.57 335.42 174.57 C 333.97 172.00 331.64 169.88 331.00 166.91 C 330.26 163.81 329.82 160.65 329.33 157.50 Z" />
<path fill="#ffffff" opacity="1.00" d=" M 400.44 165.56 C 399.93 164.10 401.24 162.29 402.79 162.28 C 404.32 163.70 402.14 166.29 400.44 165.56 Z" />
<path fill="#ffffff" opacity="1.00" d=" M 336.47 168.00 C 340.23 170.74 342.43 175.18 346.51 177.54 C 347.79 178.31 349.10 179.03 350.37 179.82 C 348.96 180.29 347.61 180.27 346.31 179.74 C 344.87 178.02 342.57 177.49 340.94 176.02 C 338.78 173.78 337.64 170.82 336.47 168.00 Z" />
<path fill="#ffffff" opacity="1.00" d=" M 378.73 179.24 C 384.54 176.82 387.76 171.33 392.22 167.27 C 391.11 170.25 389.83 173.29 387.64 175.65 C 386.06 177.00 384.04 177.70 382.41 178.97 C 388.98 177.67 395.93 178.19 402.12 175.27 C 398.77 178.88 394.10 181.52 389.06 181.24 C 385.57 180.87 382.16 179.94 378.73 179.24 Z" />
<path fill="#ffffff" opacity="1.00" d=" M 519.16 169.45 C 522.12 169.64 526.89 168.13 528.21 171.81 C 528.83 173.42 527.30 174.52 526.53 175.68 C 529.54 176.26 529.62 180.86 526.91 181.87 C 524.36 182.84 521.52 182.23 518.87 182.36 C 519.02 178.07 518.44 173.66 519.16 169.45 M 521.25 171.16 C 521.24 172.42 521.25 173.69 521.27 174.95 C 522.87 174.49 526.10 175.56 525.93 172.95 C 525.73 170.56 522.82 171.60 521.25 171.16 M 521.27 176.46 C 521.23 177.84 521.22 179.23 521.22 180.61 C 523.08 180.41 525.38 180.98 526.63 179.17 C 526.89 175.98 523.33 176.67 521.27 176.46 Z" />
<path fill="#ffffff" opacity="1.00" d=" M 531.43 169.39 C 534.35 169.64 537.94 168.51 540.31 170.77 C 541.98 173.06 540.86 175.77 538.96 177.48 C 539.63 179.08 540.90 180.56 540.89 182.37 C 540.37 182.39 539.34 182.43 538.83 182.45 C 537.56 180.33 536.97 176.85 533.74 177.35 C 533.71 179.03 533.71 180.73 533.70 182.42 C 533.13 182.41 531.99 182.39 531.43 182.39 C 531.37 178.05 531.38 173.72 531.43 169.39 M 533.70 171.26 C 533.69 172.76 533.71 174.26 533.73 175.77 C 535.43 175.45 538.31 176.30 538.73 173.93 C 539.10 171.01 535.58 171.40 533.70 171.26 Z" />
<path fill="#ffffff" opacity="1.00" d=" M 547.60 169.35 C 548.47 169.38 549.34 169.41 550.22 169.44 C 551.69 173.76 553.29 178.03 554.76 182.35 C 554.17 182.38 552.99 182.45 552.41 182.48 C 552.00 181.38 551.60 180.28 551.22 179.18 C 549.57 179.15 547.94 179.14 546.30 179.14 C 545.97 180.21 545.64 181.28 545.33 182.34 C 544.74 182.37 543.57 182.42 542.98 182.44 C 544.36 178.02 546.07 173.71 547.60 169.35 M 548.77 171.84 C 548.15 173.62 547.56 175.41 547.02 177.22 C 548.21 177.22 549.41 177.22 550.61 177.22 C 550.02 175.42 549.42 173.62 548.77 171.84 Z" />
<path fill="#ffffff" opacity="1.00" d=" M 556.78 174.06 C 555.88 170.94 559.19 168.47 562.09 169.12 C 564.41 168.91 565.73 170.84 566.83 172.54 C 565.10 173.52 563.86 172.34 562.73 171.15 C 561.02 170.98 558.26 171.37 559.36 173.79 C 561.20 174.62 563.24 174.91 565.09 175.73 C 567.30 177.06 567.02 180.72 564.80 181.91 C 561.66 183.68 556.70 182.67 556.16 178.55 C 557.73 178.75 559.07 179.44 560.16 180.62 C 561.81 180.70 563.73 180.85 564.56 178.98 C 562.91 175.95 557.91 177.61 556.78 174.06 Z" />
<path fill="#ffffff" opacity="1.00" d=" M 569.18 169.32 C 569.76 169.35 570.93 169.41 571.51 169.44 C 571.52 173.75 571.53 178.07 571.49 182.38 C 570.92 182.40 569.77 182.42 569.19 182.43 C 569.16 178.06 569.14 173.69 569.18 169.32 Z" />
<path fill="#ffffff" opacity="1.00" d=" M 574.72 169.13 C 575.31 169.25 576.48 169.49 577.06 169.61 C 577.22 173.18 577.07 176.75 577.14 180.32 C 579.24 180.81 583.45 178.85 583.38 182.35 C 580.48 182.45 577.59 182.42 574.69 182.40 C 574.70 177.98 574.65 173.55 574.72 169.13 Z" />
<path fill="#ffffff" opacity="1.00" d=" M 370.01 177.61 C 369.04 175.12 371.66 173.60 373.23 172.18 C 373.48 173.58 374.27 174.77 375.00 175.97 C 373.34 176.56 371.69 177.12 370.01 177.61 Z" />
<path fill="#ffffff" opacity="1.00" d=" M 326.77 176.19 C 332.59 179.27 339.29 177.92 345.46 179.49 C 345.39 179.82 345.25 180.48 345.18 180.81 C 338.76 183.28 331.24 181.41 326.77 176.19 Z" />
<path fill="#ffffff" opacity="1.00" d=" M 345.23 183.80 C 347.28 183.96 349.48 183.82 351.38 184.77 C 351.50 186.67 351.22 188.66 352.23 190.39 C 351.48 193.63 347.67 192.61 345.21 192.86 C 345.16 189.84 345.14 186.82 345.23 183.80 M 347.15 185.56 C 347.15 186.07 347.16 187.08 347.17 187.59 C 348.44 189.06 350.81 186.92 349.40 185.56 C 348.84 185.56 347.71 185.56 347.15 185.56 M 347.31 189.20 C 346.16 190.66 348.62 192.29 349.66 190.87 C 350.82 189.43 348.31 187.77 347.31 189.20 Z" />
<path fill="#ffffff" opacity="1.00" d=" M 353.63 183.80 C 355.78 184.13 359.23 183.18 360.08 185.93 C 360.75 187.49 359.11 188.55 358.40 189.71 C 359.07 190.62 359.75 191.55 360.44 192.47 C 361.57 189.67 362.48 186.79 363.47 183.94 C 364.63 184.08 366.64 183.29 366.92 185.01 C 367.94 187.67 368.80 190.39 369.50 193.16 C 367.45 192.98 365.95 190.20 363.78 191.49 C 361.45 193.86 356.94 193.38 355.90 189.90 C 355.84 190.67 355.71 192.22 355.65 193.00 C 355.16 192.91 354.17 192.72 353.67 192.62 C 353.45 189.69 353.57 186.74 353.63 183.80 M 355.60 186.12 C 354.58 187.46 356.72 189.57 357.75 187.88 C 358.82 186.51 356.62 184.40 355.60 186.12 M 364.01 189.86 C 366.88 190.06 365.54 187.36 365.09 185.77 C 364.60 187.10 364.27 188.47 364.01 189.86 Z" />
<path fill="#ffffff" opacity="1.00" d=" M 370.21 187.00 C 369.47 183.51 375.27 182.36 376.22 185.65 C 375.36 185.67 373.64 185.71 372.78 185.73 L 372.63 186.72 C 373.98 187.39 376.88 187.79 376.29 190.00 C 376.73 193.84 369.50 194.26 369.73 190.66 C 371.19 190.63 372.65 190.71 374.11 190.93 C 373.79 188.74 370.31 189.19 370.21 187.00 Z" />
<path fill="#ffffff" opacity="1.00" d=" M 377.73 183.89 C 378.35 183.89 379.61 183.87 380.23 183.86 C 380.23 186.78 380.30 189.71 380.17 192.63 C 379.56 192.73 378.34 192.92 377.73 193.02 C 377.66 189.98 377.67 186.93 377.73 183.89 Z" />
<path fill="#ffffff" opacity="1.00" d=" M 382.15 183.85 C 382.75 183.92 383.95 184.07 384.55 184.14 C 384.52 186.32 384.51 188.51 384.51 190.70 C 385.26 190.70 386.76 190.71 387.51 190.71 C 387.54 191.24 387.62 192.29 387.65 192.81 C 385.81 192.84 383.96 192.83 382.13 192.82 C 382.09 189.83 382.09 186.84 382.15 183.85 Z" />
</g>
<g id="#83838390">
<path fill="#838383" opacity="0.56" d=" M 471.16 82.04 C 484.08 82.04 497.00 82.03 509.93 82.05 L 509.88 82.20 C 509.76 82.68 509.50 83.62 509.37 84.10 C 500.88 83.88 492.41 85.13 483.94 84.33 C 479.87 84.16 475.81 84.26 471.75 84.10 C 471.61 83.61 471.33 82.64 471.19 82.15 L 471.16 82.04 Z" />
<path fill="#838383" opacity="0.56" d=" M 489.24 94.20 C 489.85 94.83 489.85 94.83 489.24 94.20 Z" />
<path fill="#838383" opacity="0.56" d=" M 488.62 100.13 C 489.87 98.78 491.47 99.25 492.93 99.97 L 492.22 100.97 C 497.55 100.93 502.88 100.95 508.21 100.93 C 508.47 101.35 509.00 102.18 509.26 102.60 C 509.46 102.92 509.86 103.56 510.06 103.87 C 497.04 104.08 484.02 104.07 471.00 103.89 C 471.21 103.56 471.64 102.91 471.85 102.58 C 472.11 102.17 472.62 101.37 472.88 100.96 C 477.82 100.93 482.79 101.23 487.71 100.71 L 488.62 100.13 M 490.25 100.24 C 490.81 100.80 490.81 100.80 490.25 100.24 Z" />
</g>
</svg>
