<?xml version="1.0" encoding="UTF-8" standalone="no"?>
<svg
   width="800pt"
   height="798pt"
   viewBox="0 0 800 798"
   version="1.1"
   id="svg62"
   sodipodi:docname="Logo-03 Logo_SVG_FederacaoPE-2.svg"
   inkscape:version="1.4.4 (dcaf3e7, 2026-05-05)"
   xmlns:inkscape="http://www.inkscape.org/namespaces/inkscape"
   xmlns:sodipodi="http://sodipodi.sourceforge.net/DTD/sodipodi-0.dtd"
   xmlns="http://www.w3.org/2000/svg"
   xmlns:svg="http://www.w3.org/2000/svg">
  <defs
     id="defs62">
    <rect
       x="407.41267"
       y="376.64696"
       width="725.02986"
       height="53.499508"
       id="rect62" />
  </defs>
  <sodipodi:namedview
     id="namedview62"
     pagecolor="#ffffff"
     bordercolor="#666666"
     borderopacity="1.0"
     inkscape:showpageshadow="2"
     inkscape:pageopacity="0.0"
     inkscape:pagecheckerboard="0"
     inkscape:deskcolor="#d1d1d1"
     inkscape:document-units="pt"
     inkscape:zoom="0.53631125"
     inkscape:cx="760.75227"
     inkscape:cy="476.40246"
     inkscape:window-width="1920"
     inkscape:window-height="1009"
     inkscape:window-x="-8"
     inkscape:window-y="-8"
     inkscape:window-maximized="1"
     inkscape:current-layer="svg62" />
  <path
     fill="#fefefe"
     opacity="1"
     d="m 137.68,315.68 c 7.9,-6.49 18.09,-10.03 28.31,-9.94 13.02,0.03 26.04,-0.06 39.06,0.05 14.26,0.45 27.82,9.33 33.85,22.26 2.53,5.27 3.86,11.1 3.79,16.95 0.03,15.54 -0.03,31.08 0.02,46.62 l -0.41,0.05 c -14.79,1.84 -29.56,3.82 -44.34,5.69 -12.84,1.79 -25.88,2.75 -38.38,6.39 -9.45,2.72 -18.34,7.54 -25.48,14.34 -7.88,7.51 -13.7,16.89 -18.55,26.57 l -0.42,-0.74 c -1.94,-12.61 -0.35,-25.87 5.26,-37.4 1.68,-2.91 1.24,-6.33 1.27,-9.54 -0.03,-15.98 -0.01,-31.96 -0.01,-47.94 0.1,-12.77 6.1,-25.32 16.03,-33.36 m 23.55,11.71 c -5.44,0.67 -10.52,3.84 -13.51,8.43 -3.91,5.58 -3.32,12.69 -3.23,19.15 0.15,6.44 3.02,13.48 9.02,16.54 3.37,1.78 7.11,0.22 10.48,-0.7 8.39,-2.56 17.31,-2.89 26,-2.15 7.07,0.59 13.96,3.44 21.14,2.52 4.72,-0.63 8.74,-4.27 10.01,-8.83 1.38,-4.98 1.24,-10.22 1.53,-15.33 0.45,-10.92 -10,-20.04 -20.58,-19.79 -13.62,0.1 -27.25,-0.23 -40.86,0.16 z"
     id="path7" />
  <path
     fill="#fefefe"
     opacity="1"
     d="m 242.64,428.82 c 4,-18.67 7.78,-37.38 11.75,-56.05 5.52,0.06 11.03,0.03 16.55,0.03 -1.58,8.6 -3.68,17.1 -5.18,25.72 6.1,-8.54 12.08,-17.16 18.15,-25.72 6.58,0 13.16,0 19.74,0.01 -7.27,8.82 -14.33,17.8 -21.62,26.6 3.65,9.87 7.64,19.6 11.42,29.42 -6.76,-0.02 -13.51,0.05 -20.26,-0.04 -2.78,-8.77 -5.59,-17.52 -8.37,-26.28 -1.91,8.76 -3.63,17.56 -5.52,26.33 -5.55,-0.01 -11.11,0 -16.66,-0.02 z"
     id="path8" />
  <path
     fill="#fefefe"
     opacity="1"
     d="m 297.1,428.81 c 3.8,-18.68 7.76,-37.33 11.64,-56 11.44,-0.02 22.88,0.02 34.33,-0.02 -0.83,4.38 -1.72,8.75 -2.64,13.11 -5.93,0.02 -11.85,0.01 -17.78,0.02 -0.56,2.75 -1.13,5.5 -1.68,8.27 5.54,-0.05 11.07,-0.04 16.61,-0.03 -0.92,4.4 -1.77,8.82 -2.68,13.22 -5.59,0 -11.17,-0.02 -16.75,0.01 -0.55,2.74 -1.12,5.48 -1.68,8.21 6.34,-0.01 12.69,0 19.04,0.01 -1.02,4.38 -1.89,8.8 -2.82,13.21 -11.86,0.01 -23.73,0.03 -35.59,-0.01 z"
     id="path9" />
  <path
     fill="#fefefe"
     opacity="1"
     d="m 345.2,385.88 c 0.95,-4.35 1.87,-8.7 2.7,-13.08 15.95,0 31.9,0.01 47.85,0.01 -0.92,4.35 -1.76,8.72 -2.64,13.09 -5.19,0.15 -10.42,-0.3 -15.59,0.26 -3.37,14.14 -5.98,28.47 -9.02,42.69 -5.56,-0.02 -11.12,-0.02 -16.68,-0.02 2.87,-14.33 5.91,-28.62 8.89,-42.92 -5.17,0.01 -10.34,0.01 -15.51,-0.03 z"
     id="path10" />
  <path
     fill="#fefefe"
     opacity="1"
     d="m 396.01,385.94 c 0.88,-4.38 1.75,-8.77 2.67,-13.15 15.96,0.03 31.92,0.02 47.88,0.01 -1.01,4.41 -1.86,8.86 -2.8,13.28 -5.19,-0.2 -10.37,-0.16 -15.56,-0.19 -3.06,14.3 -5.99,28.62 -8.97,42.94 -5.58,0.01 -11.17,0.02 -16.75,-0.02 3.05,-14.29 5.94,-28.61 8.98,-42.9 -5.15,0 -10.3,-0.01 -15.45,0.03 z"
     id="path11" />
  <path
     fill="#fefefe"
     opacity="1"
     d="m 453.01,372.81 c 5.57,-0.01 11.14,0.01 16.71,-0.02 -2.91,14.27 -5.95,28.52 -8.89,42.79 6.34,0.04 12.68,0.01 19.03,0.03 -0.96,4.39 -1.97,8.77 -2.73,13.2 -11.91,0.06 -23.82,0 -35.73,0.03 3.86,-18.68 7.91,-37.32 11.61,-56.03 z"
     id="path12" />
  <path
     fill="#fefefe"
     opacity="1"
     d="m 484.03,428.86 c 3.92,-18.68 7.81,-37.36 11.67,-56.05 11.46,-0.01 22.92,0.01 34.38,-0.02 -0.77,4.4 -1.81,8.75 -2.7,13.12 -5.92,-0.01 -11.85,0.02 -17.77,0 -0.58,2.73 -1.12,5.48 -1.62,8.24 5.55,0.02 11.09,-0.02 16.64,0.04 -0.91,4.39 -1.93,8.75 -2.69,13.16 -5.58,0.05 -11.15,0 -16.72,0.03 -0.59,2.75 -1.16,5.49 -1.79,8.23 6.34,-0.01 12.69,-0.02 19.04,-0.01 -0.9,4.42 -1.82,8.84 -2.81,13.24 -11.88,0 -23.76,-0.03 -35.63,0.02 z"
     id="path13" />
  <path
     fill="#fefefe"
     opacity="1"
     d="m 527.5,428.83 c 3.99,-18.67 7.77,-37.39 11.75,-56.06 7.9,0.09 15.81,-0.03 23.71,0.06 4.74,0.21 9.84,0.59 13.84,3.42 4.6,3.27 5.39,10.02 3.25,14.94 -2.29,4.7 -7.43,7.04 -12.31,8.04 3.48,1.1 7.26,2.53 9.13,5.91 3.27,6.12 1.29,14.44 -4.3,18.53 -5.24,4.03 -12.13,5.09 -18.58,5.16 -8.83,0.02 -17.66,0 -26.49,0 m 26.03,-44.82 c -0.79,3.54 -1.52,7.1 -2.25,10.67 3.33,-0.2 7.06,0.52 10.03,-1.38 2.87,-1.73 3.19,-6.97 0,-8.48 -2.5,-0.87 -5.19,-0.67 -7.78,-0.81 m -4.56,21.89 c -0.8,3.89 -1.73,7.75 -2.54,11.64 4.04,-0.24 8.71,0.76 12.19,-1.88 3.16,-2.16 2.92,-8.23 -1.06,-9.33 -2.81,-0.65 -5.74,-0.36 -8.59,-0.43 z"
     id="path14" />
  <path
     fill="#fefefe"
     opacity="1"
     d="m 582.74,428.81 c 3.99,-18.66 7.79,-37.36 11.74,-56.03 11.47,0.05 22.93,0.04 34.4,0 -0.99,4.32 -1.63,8.73 -2.82,13 -5.89,0.34 -11.8,0.04 -17.69,0.12 -0.58,2.75 -1.12,5.52 -1.69,8.28 5.55,-0.02 11.11,-0.04 16.67,0 -1,4.39 -1.83,8.81 -2.76,13.21 -5.55,-0.02 -11.09,-0.02 -16.64,-0.01 -0.6,2.73 -1.21,5.47 -1.78,8.21 6.35,0.02 12.7,0 19.05,0.03 -0.93,4.41 -1.9,8.8 -2.79,13.22 -11.9,-0.03 -23.79,0.03 -35.69,-0.03 z"
     id="path15" />
  <path
     fill="#fefefe"
     opacity="1"
     d="m 637.94,372.8 c 5.55,0.01 11.11,0.01 16.68,-0.01 -3,14.27 -6.02,28.53 -8.91,42.81 6.33,-0.01 12.65,0.01 18.98,0 -0.96,4.38 -1.88,8.78 -2.68,13.2 -11.92,0.07 -23.84,0.04 -35.75,0.01 3.9,-18.67 7.81,-37.34 11.68,-56.01 z"
     id="path16" />
  <path
     fill="#fefefe"
     opacity="1"
     d="m 668.9,428.79 c 3.9,-18.67 7.79,-37.33 11.68,-56 5.5,0.02 11.01,0.02 16.52,0 -2.73,14.31 -5.84,28.55 -8.82,42.82 6.35,-0.01 12.71,-0.03 19.07,0.01 -0.93,4.41 -1.9,8.81 -2.84,13.22 -11.87,-0.04 -23.74,0.06 -35.61,-0.05 z"
     id="path17" />
  <path
     fill="#fefefe"
     opacity="1"
     d="m 187.85,440.84 c 4.35,-4.66 10.96,-6.35 17.14,-6.44 6.14,-0.23 12.21,1.11 17.95,3.18 -0.85,4.49 -1.8,8.95 -2.71,13.42 -5.14,-2.57 -11.13,-5.33 -16.94,-3.54 -2.79,0.83 -3.62,4.71 -1.34,6.56 4.53,3.86 10.8,5.61 14.34,10.65 5.45,7.94 2.57,20.16 -6.08,24.56 -10.19,5.1 -22.63,3.9 -32.72,-0.88 0.91,-4.63 1.83,-9.26 2.82,-13.86 5.33,3.56 11.85,6.53 18.37,4.86 3.38,-0.87 3.46,-6 0.58,-7.56 -4.78,-3.16 -10.91,-4.84 -14.06,-10.01 -3.71,-6.53 -2.72,-15.58 2.65,-20.94 z"
     id="path18" />
  <path
     fill="#fefefe"
     opacity="1"
     d="m 234.51,435.26 c 8.15,0.06 16.31,-0.1 24.46,0.07 6.24,0.16 13.02,2.99 15.69,8.99 3.5,8.65 0.84,19.88 -7.31,24.96 -7.14,4.75 -16.04,4.23 -24.23,4.19 -1.08,6.03 -2.42,12.01 -3.69,18 -5.53,0 -11.06,0.01 -16.59,-0.01 3.86,-18.74 7.77,-37.47 11.67,-56.2 m 14.16,11.98 c -0.97,4.73 -1.89,9.47 -2.92,14.19 2.7,-0.14 5.52,0.2 8.11,-0.73 4.4,-1.66 6.22,-8.05 3.05,-11.61 -2.28,-1.94 -5.47,-1.58 -8.24,-1.85 z"
     id="path19" />
  <path
     fill="#fefefe"
     opacity="1"
     d="m 299.47,435.71 c 7.99,-2.08 17.22,-2.14 24.32,2.59 5.58,3.65 8.73,10.15 9.4,16.66 1.07,10.35 -1.96,21.38 -9.25,28.98 -6.88,7.06 -17.39,9.49 -26.95,8.23 -6.92,-0.9 -13.49,-5.14 -16.49,-11.54 -7.64,-16.5 0.76,-39.79 18.97,-44.92 m 4.9,13.87 c -5.28,2.12 -7.6,7.97 -8.57,13.18 -0.65,4.24 -0.86,9.07 1.81,12.71 2.82,3.36 8.23,3.21 11.57,0.68 3.94,-2.93 5.49,-7.93 6.22,-12.58 0.46,-3.84 0.57,-8.09 -1.57,-11.49 -2.01,-3.05 -6.22,-3.56 -9.46,-2.5 z"
     id="path20" />
  <path
     fill="#fefefe"
     opacity="1"
     d="m 347.38,435.26 c 7.88,0.05 15.77,-0.08 23.65,0.06 5.57,0.2 11.68,1.85 15.14,6.55 4.24,5.97 2.66,14.87 -2.7,19.64 -2.9,2.8 -6.8,4.15 -10.62,5.14 2.95,1.73 5.73,4.11 6.71,7.52 1.63,5.68 2.5,11.55 3.85,17.3 -5.9,0 -11.8,0.01 -17.7,-0.01 -1.14,-5.33 -1.24,-10.93 -3.17,-16.06 -0.89,-2.59 -3.67,-3.29 -5.96,-4.11 -1.5,6.7 -2.87,13.44 -4.23,20.18 -5.55,0 -11.1,0.02 -16.66,-0.02 3.85,-18.74 7.76,-37.47 11.69,-56.19 m 14.31,11.53 c -0.91,4.37 -1.92,8.73 -2.91,13.08 3.32,-0.21 7.34,0.52 9.89,-2.17 2.56,-2.2 2.75,-6.47 0.67,-9.04 -1.97,-2.06 -5.09,-1.53 -7.65,-1.87 z"
     id="path21" />
  <path
     fill="#fefefe"
     opacity="1"
     d="m 396.92,435.29 c 15.95,-0.04 31.91,-0.04 47.87,0 -0.87,4.42 -1.83,8.83 -2.75,13.24 -5.24,0 -10.47,-0.01 -15.71,0 -2.89,14.33 -5.9,28.64 -8.9,42.94 -5.58,0.01 -11.16,0 -16.74,0 3.06,-14.3 5.97,-28.62 8.93,-42.94 -5.15,-0.01 -10.3,-0.01 -15.44,0 0.83,-4.43 1.84,-8.83 2.74,-13.24 z"
     id="path22" />
  <path
     fill="#ec3237"
     opacity="1"
     d="m 197.96,397.36 c 14.78,-1.87 29.55,-3.85 44.34,-5.69 -2.35,3.46 -4.99,6.71 -7.64,9.95 l -0.36,0.04 c -15.86,1.98 -31.71,4.08 -47.56,6.13 -10.86,1.55 -22.09,3.48 -31.52,9.44 -7.95,4.95 -13.93,12.47 -18.33,20.64 -7.34,13.4 -14.8,26.73 -22.04,40.18 l -0.12,0.22 c -7.23,2.67 -14.22,5.96 -21.61,8.18 1.22,-3.86 3.21,-7.4 5.21,-10.89 5.87,-10.23 11.21,-20.75 17.22,-30.9 4.85,-9.68 10.67,-19.06 18.55,-26.57 7.14,-6.8 16.03,-11.62 25.48,-14.34 12.5,-3.64 25.54,-4.6 38.38,-6.39 z"
     id="path58" />
  <path
     fill="#fdcc2a"
     opacity="1"
     d="m 186.74,407.79 c 15.85,-2.05 31.7,-4.15 47.56,-6.13 -2.19,3 -4.61,5.84 -7,8.69 -13.43,1.64 -26.84,3.47 -40.27,5.22 -7.82,1.09 -15.8,3.25 -22.1,8.23 -4.63,3.48 -8,8.31 -10.92,13.24 -6.61,11.13 -13.25,22.23 -19.86,33.36 -6.4,2.63 -12.8,5.28 -19.3,7.65 7.24,-13.45 14.7,-26.78 22.04,-40.18 4.4,-8.17 10.38,-15.69 18.33,-20.64 9.43,-5.96 20.66,-7.89 31.52,-9.44 z"
     id="path59" />
  <path
     fill="#028f4f"
     opacity="1"
     d="m 187.03,415.57 c 13.43,-1.75 26.84,-3.58 40.27,-5.22 -4.06,4.61 -7.35,11.68 -14.3,12.02 -9.87,1.4 -19.97,1.73 -29.58,4.49 -10.29,3.55 -15.51,13.85 -20.16,22.89 -2.72,4.82 -4.81,10.87 -10.31,13.19 -6.21,2.6 -12.53,4.97 -18.8,7.46 6.61,-11.13 13.25,-22.23 19.86,-33.36 2.92,-4.93 6.29,-9.76 10.92,-13.24 6.3,-4.98 14.28,-7.14 22.1,-8.23 z"
     id="path60" />
  <text
     xml:space="preserve"
     transform="matrix(0.63475819,0,0,0.63475819,-5.3478237,99.572)"
     id="text62"
     style="font-size:40px;line-height:1.25;font-family:sans-serif;white-space:pre;shape-inside:url(#rect62);fill:#5e6a82;fill-opacity:1"><tspan
       x="407.41211"
       y="413.1397"
       id="tspan8"><tspan
         style="font-style:italic;-inkscape-font-specification:'sans-serif Italic'"
         id="tspan5">FEDERAÇÃO </tspan><tspan
         style="font-style:italic;font-weight:bold;-inkscape-font-specification:'sans-serif Bold Italic'"
         id="tspan6">PERNAMBUCANA</tspan><tspan
         style="font-style:italic;-inkscape-font-specification:'sans-serif Italic'"
         id="tspan7"> DE</tspan></tspan></text>
</svg>
