<?xml version="1.0" encoding="UTF-8" ?>
<!DOCTYPE svg PUBLIC "-//W3C//DTD SVG 1.1//EN" "http://www.w3.org/Graphics/SVG/1.1/DTD/svg11.dtd">
<svg width="415pt" height="749pt" viewBox="0 0 415 749" version="1.1" xmlns="http://www.w3.org/2000/svg">
<g id="#ffffffff">
<path fill="#ffffff" opacity="1.00" d=" M 187.69 269.92 C 190.85 267.05 195.10 265.74 199.33 266.42 C 198.62 267.55 198.35 269.19 197.05 269.81 C 193.98 270.56 190.79 270.19 187.69 269.92 Z" />
<path fill="#ffffff" opacity="1.00" d=" M 192.99 509.21 C 194.82 509.18 196.65 509.15 198.49 509.12 C 198.66 518.18 198.81 527.24 198.95 536.30 C 197.12 536.34 195.29 536.37 193.46 536.42 C 193.31 527.35 193.16 518.28 192.99 509.21 Z" />
<path fill="#ffffff" opacity="1.00" d=" M 205.75 509.25 C 208.18 509.25 210.60 509.25 213.03 509.25 C 215.20 515.66 217.27 522.10 219.54 528.47 C 221.77 522.06 223.96 515.65 226.20 509.25 C 228.32 509.25 230.44 509.25 232.56 509.25 C 232.55 518.34 232.56 527.42 232.56 536.51 C 230.87 536.50 229.18 536.49 227.50 536.49 C 227.51 529.59 227.49 522.70 227.51 515.80 C 225.27 522.07 223.13 528.36 220.92 534.63 C 219.44 534.62 217.96 534.62 216.49 534.62 C 214.39 528.26 212.18 521.95 210.17 515.57 C 209.96 522.55 210.11 529.53 210.05 536.51 C 208.61 536.49 207.18 536.49 205.75 536.49 C 205.76 527.41 205.76 518.33 205.75 509.25 Z" />
<path fill="#ffffff" opacity="1.00" d=" M 161.75 510.71 C 165.55 508.61 170.07 509.48 174.17 509.95 C 174.22 511.36 174.27 512.77 174.33 514.19 C 170.97 513.55 166.21 511.47 163.84 515.02 C 163.14 519.72 169.37 520.37 172.19 522.73 C 177.00 524.83 178.27 531.81 174.33 535.35 C 170.12 538.99 164.06 537.92 159.00 537.34 C 158.94 535.84 158.90 534.34 158.85 532.86 C 162.05 533.74 165.53 534.98 168.82 533.78 C 171.00 532.93 171.68 529.76 169.98 528.14 C 166.81 525.50 162.46 524.49 159.75 521.25 C 157.08 518.06 158.17 512.76 161.75 510.71 Z" />
<path fill="#ffffff" opacity="1.00" d=" M 240.26 509.81 C 244.89 510.12 249.66 509.65 254.18 510.84 C 259.08 512.66 258.96 519.60 256.22 523.22 C 253.60 526.61 248.97 526.63 245.08 526.58 C 244.95 530.10 244.83 533.63 244.72 537.16 C 242.92 537.09 241.12 537.02 239.33 536.98 C 239.64 527.92 239.94 518.86 240.26 509.81 M 245.54 513.53 C 245.40 516.69 245.28 519.85 245.25 523.02 C 247.25 522.66 249.71 522.94 251.15 521.22 C 252.87 519.36 253.01 515.78 250.70 514.35 C 249.04 513.77 247.26 513.73 245.54 513.53 Z" />
<path fill="#ffffff" opacity="1.00" d=" M 147.30 511.37 C 148.88 511.24 150.46 511.14 152.05 511.03 C 152.26 518.33 153.68 525.66 152.97 532.95 C 150.67 542.46 133.32 541.80 132.62 531.57 C 131.86 525.24 131.70 518.85 131.18 512.51 C 133.00 512.38 134.83 512.25 136.66 512.13 C 137.36 518.95 137.08 525.91 138.50 532.64 C 139.67 537.30 147.84 536.85 148.31 531.98 C 148.71 525.11 147.53 518.24 147.30 511.37 Z" />
<path fill="#ffffff" opacity="1.00" d=" M 259.12 538.01 C 263.04 529.14 266.95 520.27 270.88 511.41 C 272.70 511.50 274.53 511.59 276.37 511.69 C 279.38 520.92 282.35 530.16 285.34 539.39 C 283.47 539.30 281.62 539.21 279.76 539.13 C 278.93 536.66 278.13 534.17 277.32 531.70 C 273.62 531.50 269.91 531.30 266.21 531.11 C 265.17 533.47 264.12 535.84 263.08 538.22 C 261.75 538.14 260.44 538.07 259.12 538.01 M 267.77 527.62 C 270.56 527.77 273.36 527.92 276.16 528.07 C 274.95 524.34 273.75 520.61 272.55 516.88 C 270.91 520.44 269.34 524.03 267.77 527.62 Z" />
<path fill="#ffffff" opacity="1.00" d=" M 102.45 515.01 C 110.64 514.27 118.83 513.54 127.02 512.81 C 127.10 513.72 127.26 515.55 127.34 516.46 C 124.16 516.75 120.99 517.03 117.82 517.29 C 118.44 525.12 119.15 532.93 119.80 540.76 C 117.97 540.91 116.14 541.08 114.31 541.24 C 113.66 533.43 112.97 525.62 112.30 517.81 C 109.12 518.09 105.94 518.37 102.76 518.65 C 102.69 517.74 102.53 515.92 102.45 515.01 Z" />
<path fill="#ffffff" opacity="1.00" d=" M 288.36 512.45 C 290.30 512.61 292.24 512.79 294.19 512.96 C 296.19 520.13 297.91 527.38 300.11 534.49 C 303.25 527.80 306.22 521.03 309.27 514.30 C 310.56 514.41 311.86 514.54 313.16 514.68 C 309.27 523.40 305.26 532.07 301.46 540.83 C 299.58 540.71 297.72 540.57 295.86 540.44 C 293.36 531.11 290.85 521.78 288.36 512.45 Z" />
<path fill="#ffffff" opacity="1.00" d=" M 317.57 516.07 C 319.37 515.96 321.18 516.18 322.99 516.35 C 322.08 525.38 321.13 534.42 320.20 543.45 C 318.38 543.25 316.56 543.06 314.75 542.87 C 315.72 533.94 316.47 524.98 317.57 516.07 Z" />
<path fill="#ffffff" opacity="1.00" d=" M 79.29 518.11 C 84.38 517.84 89.67 515.80 94.66 517.40 C 100.01 520.32 98.43 528.07 93.95 531.07 C 97.28 534.87 100.64 538.64 103.98 542.44 C 101.75 542.70 99.52 542.97 97.28 543.22 C 94.76 539.83 92.09 536.56 89.62 533.14 C 88.52 533.20 87.42 533.27 86.33 533.35 C 86.77 537.07 87.23 540.78 87.66 544.51 C 85.93 544.68 84.20 544.85 82.47 545.00 C 81.51 536.03 80.32 527.08 79.29 518.11 M 84.84 520.97 C 85.19 523.96 85.55 526.95 85.93 529.94 C 88.04 529.27 90.89 529.26 92.04 527.03 C 93.07 525.14 92.99 522.15 90.84 521.07 C 88.89 520.51 86.83 520.94 84.84 520.97 Z" />
<path fill="#ffffff" opacity="1.00" d=" M 330.71 517.20 C 336.31 518.26 342.28 518.13 347.57 520.46 C 357.43 526.20 353.55 544.73 342.08 545.82 C 337.00 545.97 332.02 544.69 327.00 544.11 C 328.24 535.14 329.47 526.17 330.71 517.20 M 335.66 521.56 C 334.75 528.10 333.85 534.63 332.95 541.17 C 336.57 541.47 341.10 543.10 344.04 540.14 C 347.32 536.38 348.28 530.50 346.13 525.97 C 344.19 522.12 339.29 522.29 335.66 521.56 Z" />
<path fill="#ffffff" opacity="1.00" d=" M 66.55 520.39 C 68.36 520.12 70.17 519.86 71.98 519.61 C 73.22 528.59 74.45 537.56 75.70 546.54 C 73.89 546.79 72.07 547.04 70.26 547.31 C 69.02 538.34 67.79 529.36 66.55 520.39 Z" />
<path fill="#ffffff" opacity="1.00" d=" M 57.97 522.11 C 58.93 521.94 60.86 521.59 61.83 521.42 C 60.26 530.91 58.67 540.39 57.08 549.88 C 55.27 550.20 53.46 550.53 51.65 550.86 C 46.86 542.52 42.08 534.18 37.31 525.83 C 39.22 525.48 41.14 525.14 43.06 524.79 C 46.80 531.27 50.47 537.78 54.24 544.23 C 55.51 536.86 56.72 529.48 57.97 522.11 Z" />
<path fill="#ffffff" opacity="1.00" d=" M 367.46 523.07 C 369.29 523.34 371.12 523.62 372.96 523.91 C 374.98 533.41 377.02 542.92 379.03 552.43 C 377.16 552.12 375.32 551.83 373.47 551.54 C 372.92 548.99 372.39 546.45 371.85 543.92 C 368.19 543.31 364.52 542.71 360.85 542.13 C 359.57 544.38 358.29 546.62 357.01 548.87 C 355.70 548.66 354.40 548.45 353.10 548.25 C 357.88 539.85 362.72 531.49 367.46 523.07 M 362.75 538.84 C 365.51 539.29 368.28 539.73 371.05 540.17 C 370.24 536.32 369.42 532.47 368.59 528.63 C 366.64 532.03 364.69 535.43 362.75 538.84 Z" />
<path fill="#ffffff" opacity="1.00" d=" M 237.96 668.32 C 245.22 667.87 252.97 667.88 259.56 671.37 C 268.88 676.20 267.60 692.21 257.97 695.96 C 251.66 698.57 244.62 698.36 237.95 697.76 C 237.95 687.95 237.91 678.13 237.96 668.32 Z" />
</g>
<g id="#891333ff">
<path fill="#891333" opacity="1.00" d=" M 198.55 1.28 C 207.92 5.14 216.15 12.90 219.20 22.73 C 222.67 32.61 221.93 43.62 218.42 53.37 C 213.88 63.67 205.18 71.95 202.61 83.16 C 200.68 90.79 205.26 99.86 213.10 101.81 C 215.83 102.66 219.40 101.11 219.45 97.94 C 219.81 92.33 215.20 88.23 213.96 83.07 C 213.58 78.60 215.50 74.34 217.42 70.41 C 221.40 62.50 226.74 55.02 228.44 46.17 C 229.34 42.03 228.51 37.82 227.28 33.85 C 230.90 36.52 234.17 39.97 235.40 44.43 C 238.07 53.15 235.78 62.21 234.91 71.01 C 234.56 74.01 237.04 76.20 238.61 78.45 C 242.18 83.19 246.73 87.86 247.60 93.97 C 247.54 102.35 241.90 109.80 234.86 113.89 C 221.85 121.57 205.59 121.70 191.42 117.41 C 184.25 115.16 176.89 111.82 172.30 105.60 C 168.49 100.54 167.85 93.37 170.79 87.75 C 179.18 71.44 192.88 58.57 201.24 42.23 C 204.59 35.70 206.55 28.27 205.60 20.91 C 204.86 13.89 201.71 7.48 198.55 1.28 Z" />
<path fill="#891333" opacity="1.00" d=" M 93.92 6.08 C 103.42 10.07 111.75 17.98 114.71 28.03 C 117.99 37.68 117.21 48.36 113.90 57.89 C 109.44 68.34 100.56 76.63 98.00 87.93 C 96.04 95.44 100.43 104.36 108.06 106.54 C 110.73 107.52 114.46 106.27 114.76 103.11 C 115.23 98.21 111.86 94.22 109.96 90.01 C 108.46 86.68 109.62 82.93 110.78 79.69 C 114.65 69.98 121.72 61.60 123.76 51.17 C 124.70 47.02 123.99 42.74 122.53 38.80 C 126.57 41.41 129.87 45.29 130.97 50.06 C 133.22 58.26 131.27 66.74 130.33 74.98 C 129.53 78.52 132.43 81.13 134.31 83.71 C 137.78 88.33 142.17 92.91 142.96 98.86 C 142.86 107.08 137.42 114.42 130.54 118.52 C 118.81 125.64 104.18 126.46 91.05 123.37 C 82.74 121.34 74.10 118.12 68.41 111.42 C 63.92 106.21 62.98 98.33 66.29 92.26 C 74.75 76.06 88.38 63.21 96.68 46.90 C 100.12 40.17 102.03 32.44 100.84 24.88 C 99.97 18.17 96.91 12.05 93.92 6.08 Z" />
<path fill="#891333" opacity="1.00" d=" M 303.22 6.09 C 312.46 9.97 320.63 17.57 323.74 27.26 C 327.32 37.20 326.60 48.30 323.09 58.15 C 318.57 68.45 309.87 76.71 307.29 87.89 C 305.27 95.57 309.93 104.81 317.87 106.66 C 320.45 107.44 323.81 106.02 324.06 103.08 C 324.91 96.03 316.93 91.11 318.82 84.00 C 321.69 71.86 331.50 62.44 333.26 49.90 C 333.97 46.13 332.98 42.36 331.90 38.76 C 336.18 41.63 339.57 45.93 340.53 51.08 C 342.37 59.06 340.50 67.17 339.60 75.13 C 338.90 78.73 341.93 81.34 343.82 83.99 C 347.25 88.56 351.58 93.11 352.25 99.03 C 352.06 107.54 346.22 115.00 339.00 119.02 C 326.35 126.25 310.76 126.47 297.02 122.52 C 289.62 120.32 282.02 117.02 277.18 110.75 C 273.15 105.63 272.43 98.23 275.49 92.46 C 281.90 80.02 291.44 69.64 299.22 58.09 C 304.92 49.74 310.36 40.44 310.47 30.02 C 310.69 21.47 307.02 13.54 303.22 6.09 Z" />
<path fill="#891333" opacity="1.00" d=" M 19.93 507.49 C 72.15 495.89 125.54 489.84 178.99 488.33 C 252.02 486.41 325.41 492.25 396.91 507.52 C 394.78 519.73 392.64 531.93 390.52 544.14 C 398.20 545.58 405.86 547.15 413.50 548.86 C 409.97 565.79 406.42 582.71 402.90 599.65 C 379.29 594.30 355.38 590.06 331.28 587.71 C 345.58 583.88 359.85 579.98 374.15 576.13 C 377.34 575.27 380.60 574.58 383.62 573.19 C 336.10 562.89 287.57 557.51 239.02 555.55 C 169.52 553.03 99.51 558.14 31.59 573.43 C 49.11 578.39 66.74 582.98 84.34 587.65 C 60.13 590.05 36.10 594.24 12.39 599.66 C 8.81 582.74 5.31 565.79 1.76 548.86 C 9.89 547.05 18.04 545.39 26.23 543.87 C 24.15 531.74 21.94 519.63 19.93 507.49 M 192.99 509.21 C 193.16 518.28 193.31 527.35 193.46 536.42 C 195.29 536.37 197.12 536.34 198.95 536.30 C 198.81 527.24 198.66 518.18 198.49 509.12 C 196.65 509.15 194.82 509.18 192.99 509.21 M 205.75 509.25 C 205.76 518.33 205.76 527.41 205.75 536.49 C 207.18 536.49 208.61 536.49 210.05 536.51 C 210.11 529.53 209.96 522.55 210.17 515.57 C 212.18 521.95 214.39 528.26 216.49 534.62 C 217.96 534.62 219.44 534.62 220.92 534.63 C 223.13 528.36 225.27 522.07 227.51 515.80 C 227.49 522.70 227.51 529.59 227.50 536.49 C 229.18 536.49 230.87 536.50 232.56 536.51 C 232.56 527.42 232.55 518.34 232.56 509.25 C 230.44 509.25 228.32 509.25 226.20 509.25 C 223.96 515.65 221.77 522.06 219.54 528.47 C 217.27 522.10 215.20 515.66 213.03 509.25 C 210.60 509.25 208.18 509.25 205.75 509.25 M 161.75 510.71 C 158.17 512.76 157.08 518.06 159.75 521.25 C 162.46 524.49 166.81 525.50 169.98 528.14 C 171.68 529.76 171.00 532.93 168.82 533.78 C 165.53 534.98 162.05 533.74 158.85 532.86 C 158.90 534.34 158.94 535.84 159.00 537.34 C 164.06 537.92 170.12 538.99 174.33 535.35 C 178.27 531.81 177.00 524.83 172.19 522.73 C 169.37 520.37 163.14 519.72 163.84 515.02 C 166.21 511.47 170.97 513.55 174.33 514.19 C 174.27 512.77 174.22 511.36 174.17 509.95 C 170.07 509.48 165.55 508.61 161.75 510.71 M 240.26 509.81 C 239.94 518.86 239.64 527.92 239.33 536.98 C 241.12 537.02 242.92 537.09 244.72 537.16 C 244.83 533.63 244.95 530.10 245.08 526.58 C 248.97 526.63 253.60 526.61 256.22 523.22 C 258.96 519.60 259.08 512.66 254.18 510.84 C 249.66 509.65 244.89 510.12 240.26 509.81 M 147.30 511.37 C 147.53 518.24 148.71 525.11 148.31 531.98 C 147.84 536.85 139.67 537.30 138.50 532.64 C 137.08 525.91 137.36 518.95 136.66 512.13 C 134.83 512.25 133.00 512.38 131.18 512.51 C 131.70 518.85 131.86 525.24 132.62 531.57 C 133.32 541.80 150.67 542.46 152.97 532.95 C 153.68 525.66 152.26 518.33 152.05 511.03 C 150.46 511.14 148.88 511.24 147.30 511.37 M 259.12 538.01 C 260.44 538.07 261.75 538.14 263.08 538.22 C 264.12 535.84 265.17 533.47 266.21 531.11 C 269.91 531.30 273.62 531.50 277.32 531.70 C 278.13 534.17 278.93 536.66 279.76 539.13 C 281.62 539.21 283.47 539.30 285.34 539.39 C 282.35 530.16 279.38 520.92 276.37 511.69 C 274.53 511.59 272.70 511.50 270.88 511.41 C 266.95 520.27 263.04 529.14 259.12 538.01 M 102.45 515.01 C 102.53 515.92 102.69 517.74 102.76 518.65 C 105.94 518.37 109.12 518.09 112.30 517.81 C 112.97 525.62 113.66 533.43 114.31 541.24 C 116.14 541.08 117.97 540.91 119.80 540.76 C 119.15 532.93 118.44 525.12 117.82 517.29 C 120.99 517.03 124.16 516.75 127.34 516.46 C 127.26 515.55 127.10 513.72 127.02 512.81 C 118.83 513.54 110.64 514.27 102.45 515.01 M 288.36 512.45 C 290.85 521.78 293.36 531.11 295.86 540.44 C 297.72 540.57 299.58 540.71 301.46 540.83 C 305.26 532.07 309.27 523.40 313.16 514.68 C 311.86 514.54 310.56 514.41 309.27 514.30 C 306.22 521.03 303.25 527.80 300.11 534.49 C 297.91 527.38 296.19 520.13 294.19 512.96 C 292.24 512.79 290.30 512.61 288.36 512.45 M 317.57 516.07 C 316.47 524.98 315.72 533.94 314.75 542.87 C 316.56 543.06 318.38 543.25 320.20 543.45 C 321.13 534.42 322.08 525.38 322.99 516.35 C 321.18 516.18 319.37 515.96 317.57 516.07 M 79.29 518.11 C 80.32 527.08 81.51 536.03 82.47 545.00 C 84.20 544.85 85.93 544.68 87.66 544.51 C 87.23 540.78 86.77 537.07 86.33 533.35 C 87.42 533.27 88.52 533.20 89.62 533.14 C 92.09 536.56 94.76 539.83 97.28 543.22 C 99.52 542.97 101.75 542.70 103.98 542.44 C 100.64 538.64 97.28 534.87 93.95 531.07 C 98.43 528.07 100.01 520.32 94.66 517.40 C 89.67 515.80 84.38 517.84 79.29 518.11 M 330.71 517.20 C 329.47 526.17 328.24 535.14 327.00 544.11 C 332.02 544.69 337.00 545.97 342.08 545.82 C 353.55 544.73 357.43 526.20 347.57 520.46 C 342.28 518.13 336.31 518.26 330.71 517.20 M 66.55 520.39 C 67.79 529.36 69.02 538.34 70.26 547.31 C 72.07 547.04 73.89 546.79 75.70 546.54 C 74.45 537.56 73.22 528.59 71.98 519.61 C 70.17 519.86 68.36 520.12 66.55 520.39 M 57.97 522.11 C 56.72 529.48 55.51 536.86 54.24 544.23 C 50.47 537.78 46.80 531.27 43.06 524.79 C 41.14 525.14 39.22 525.48 37.31 525.83 C 42.08 534.18 46.86 542.52 51.65 550.86 C 53.46 550.53 55.27 550.20 57.08 549.88 C 58.67 540.39 60.26 530.91 61.83 521.42 C 60.86 521.59 58.93 521.94 57.97 522.11 M 367.46 523.07 C 362.72 531.49 357.88 539.85 353.10 548.25 C 354.40 548.45 355.70 548.66 357.01 548.87 C 358.29 546.62 359.57 544.38 360.85 542.13 C 364.52 542.71 368.19 543.31 371.85 543.92 C 372.39 546.45 372.92 548.99 373.47 551.54 C 375.32 551.83 377.16 552.12 379.03 552.43 C 377.02 542.92 374.98 533.41 372.96 523.91 C 371.12 523.62 369.29 523.34 367.46 523.07 Z" />
<path fill="#891333" opacity="1.00" d=" M 245.54 513.53 C 247.26 513.73 249.04 513.77 250.70 514.35 C 253.01 515.78 252.87 519.36 251.15 521.22 C 249.71 522.94 247.25 522.66 245.25 523.02 C 245.28 519.85 245.40 516.69 245.54 513.53 Z" />
<path fill="#891333" opacity="1.00" d=" M 267.77 527.62 C 269.34 524.03 270.91 520.44 272.55 516.88 C 273.75 520.61 274.95 524.34 276.16 528.07 C 273.36 527.92 270.56 527.77 267.77 527.62 Z" />
<path fill="#891333" opacity="1.00" d=" M 84.84 520.97 C 86.83 520.94 88.89 520.51 90.84 521.07 C 92.99 522.15 93.07 525.14 92.04 527.03 C 90.89 529.26 88.04 529.27 85.93 529.94 C 85.55 526.95 85.19 523.96 84.84 520.97 Z" />
<path fill="#891333" opacity="1.00" d=" M 335.66 521.56 C 339.29 522.29 344.19 522.12 346.13 525.97 C 348.28 530.50 347.32 536.38 344.04 540.14 C 341.10 543.10 336.57 541.47 332.95 541.17 C 333.85 534.63 334.75 528.10 335.66 521.56 Z" />
<path fill="#891333" opacity="1.00" d=" M 362.75 538.84 C 364.69 535.43 366.64 532.03 368.59 528.63 C 369.42 532.47 370.24 536.32 371.05 540.17 C 368.28 539.73 365.51 539.29 362.75 538.84 Z" />
</g>
<g id="#211916ff">
<path fill="#211916" opacity="1.00" d=" M 181.38 126.67 C 199.22 123.36 217.66 123.34 235.49 126.74 C 240.50 128.49 244.55 133.44 244.19 138.91 C 244.00 144.68 239.92 149.36 235.40 152.50 C 217.61 148.66 198.90 148.67 181.12 152.51 C 176.65 149.32 172.58 144.70 172.37 138.94 C 172.00 133.37 176.20 128.27 181.38 126.67 Z" />
<path fill="#211916" opacity="1.00" d=" M 75.04 132.54 C 92.68 128.59 111.02 127.96 128.90 130.61 C 134.30 132.04 138.75 137.25 138.37 142.99 C 138.18 148.60 134.34 153.19 130.07 156.44 C 112.17 153.24 93.47 153.86 75.84 158.34 C 71.47 155.46 67.42 151.33 66.68 145.93 C 65.67 140.16 69.70 134.43 75.04 132.54 Z" />
<path fill="#211916" opacity="1.00" d=" M 283.61 132.53 C 287.15 129.82 291.82 130.20 296.01 129.66 C 311.02 128.13 326.22 129.28 340.97 132.38 C 346.67 134.02 351.00 140.11 349.85 146.10 C 349.09 151.41 345.04 155.40 340.83 158.33 C 323.16 153.91 304.45 153.21 286.52 156.44 C 282.53 153.44 278.95 149.31 278.31 144.19 C 277.56 139.68 279.83 135.01 283.61 132.53 Z" />
<path fill="#211916" opacity="1.00" d=" M 181.51 158.49 C 198.88 153.75 217.59 153.85 234.99 158.41 C 235.00 162.66 234.92 166.92 234.94 171.17 C 217.17 170.70 199.39 170.71 181.62 171.17 C 181.64 166.94 181.64 162.72 181.51 158.49 Z" />
<path fill="#211916" opacity="1.00" d=" M 76.49 164.21 C 93.70 159.04 112.32 158.38 129.84 162.36 C 129.98 166.22 130.11 170.09 130.22 173.95 C 112.45 175.47 94.74 177.56 77.11 180.26 C 76.90 174.91 76.68 169.56 76.49 164.21 Z" />
<path fill="#211916" opacity="1.00" d=" M 286.72 162.37 C 304.23 158.37 322.88 159.03 340.08 164.23 C 339.89 169.38 339.68 174.54 339.48 179.69 C 321.85 176.97 304.12 174.90 286.35 173.37 C 286.47 169.70 286.60 166.04 286.72 162.37 Z" />
<path fill="#211916" opacity="1.00" d=" M 39.66 197.22 C 93.51 184.84 148.86 179.96 204.04 179.74 C 262.08 179.49 320.36 184.19 377.00 197.25 C 374.09 257.83 374.41 318.59 368.93 379.03 C 366.78 402.54 363.96 426.06 358.60 449.08 C 355.14 463.52 350.80 477.98 343.22 490.86 C 338.60 490.07 333.98 489.27 329.37 488.51 C 339.25 476.31 344.03 460.99 347.94 446.04 C 353.47 423.72 356.30 400.84 358.44 377.98 C 363.64 321.01 363.36 263.75 366.09 206.66 C 320.16 196.11 272.98 191.96 225.93 191.01 C 167.15 190.11 107.92 193.56 50.47 206.65 C 53.00 259.76 52.97 312.99 57.12 366.03 C 59.11 390.79 61.76 415.59 67.16 439.87 C 71.21 456.92 76.02 474.57 87.16 488.50 C 82.54 489.26 77.93 490.17 73.28 490.78 C 66.23 478.44 61.81 464.81 58.47 451.05 C 53.68 431.26 50.91 411.05 48.77 390.82 C 42.16 326.50 42.58 261.75 39.66 197.22 Z" />
<path fill="#211916" opacity="1.00" d=" M 124.04 205.96 C 143.34 204.23 162.78 205.65 181.91 208.48 C 202.56 211.55 223.19 215.09 244.07 216.38 C 263.95 217.23 284.29 215.66 302.95 208.29 C 299.52 214.13 292.88 216.69 286.90 219.10 C 273.36 224.07 259.16 226.97 244.94 229.21 C 228.75 231.82 212.22 232.76 195.92 230.63 C 176.40 227.90 156.63 225.56 136.91 227.24 C 130.30 227.99 123.38 229.00 117.69 232.68 C 114.37 234.79 112.03 238.88 113.03 242.85 C 114.00 244.93 116.75 244.23 118.40 243.48 C 128.61 239.28 138.98 234.93 150.07 233.83 C 173.82 231.43 197.29 238.62 221.04 236.76 C 226.18 236.49 231.24 235.48 236.35 234.93 C 230.16 238.73 223.07 240.69 216.02 242.11 C 195.56 246.06 174.64 245.51 153.93 246.55 C 137.32 247.03 124.28 259.93 107.92 261.49 C 101.81 262.08 95.41 258.77 92.97 253.02 C 90.25 246.35 89.84 238.72 91.78 231.78 C 95.97 217.65 109.79 207.86 124.04 205.96 Z" />
<path fill="#211916" opacity="1.00" d=" M 162.16 270.22 C 176.25 265.16 190.64 258.92 205.94 259.78 C 211.28 266.15 210.20 274.83 209.33 282.47 C 211.84 280.89 212.37 277.73 213.03 275.07 C 214.19 269.78 212.93 264.30 210.50 259.55 C 221.67 259.54 233.69 260.26 243.45 266.26 C 240.85 268.04 238.91 270.55 238.49 273.75 C 245.66 281.57 252.63 289.81 256.86 299.66 C 255.27 299.37 253.67 299.12 252.07 298.91 C 257.62 307.71 263.25 316.75 265.43 327.08 C 266.97 333.45 267.23 340.04 267.14 346.56 C 265.82 344.96 264.43 343.44 262.90 342.06 C 261.41 357.05 257.91 372.52 248.77 384.83 C 245.89 388.75 242.14 391.91 238.03 394.47 C 239.32 388.72 241.30 381.84 237.77 376.54 C 236.87 380.08 236.16 383.81 233.91 386.80 C 229.02 393.95 220.91 397.74 213.25 401.17 C 203.53 406.10 193.28 412.62 189.24 423.28 C 185.64 432.77 191.05 443.57 199.54 448.35 C 199.53 448.51 199.50 448.84 199.48 449.00 C 196.52 447.76 193.25 447.69 190.20 446.78 C 174.07 442.55 160.50 430.86 152.59 416.35 C 149.86 411.67 148.15 406.52 146.23 401.49 C 143.31 405.84 143.18 411.38 140.82 416.03 C 136.06 405.85 134.46 393.65 139.10 383.14 C 143.98 371.49 154.84 363.48 166.45 359.32 C 166.49 359.10 166.59 358.66 166.63 358.44 C 161.33 357.71 155.99 359.06 151.26 361.44 C 154.24 353.40 160.78 347.45 167.54 342.53 C 179.59 334.01 193.04 327.61 206.88 322.60 C 209.04 318.90 209.89 313.74 206.15 310.71 C 210.37 308.99 215.19 306.11 215.66 301.09 C 215.75 297.01 213.82 292.58 210.45 290.20 C 210.77 293.82 213.36 297.20 212.28 300.94 C 211.47 303.73 208.46 304.86 205.87 305.37 C 199.95 306.38 193.91 305.74 187.94 305.72 C 184.21 305.64 180.75 307.19 177.23 308.20 C 174.93 304.95 173.80 301.09 173.57 297.14 C 176.33 300.99 181.54 301.77 185.93 301.14 C 187.37 300.92 188.68 299.56 188.30 298.03 C 187.65 294.03 184.99 290.69 182.19 287.91 C 179.35 285.22 175.52 282.65 171.42 283.49 C 168.84 283.99 167.40 286.34 165.86 288.23 C 163.93 286.22 161.77 283.98 161.74 281.00 C 161.69 277.40 162.29 273.82 162.16 270.22 M 187.69 269.92 C 190.79 270.19 193.98 270.56 197.05 269.81 C 198.35 269.19 198.62 267.55 199.33 266.42 C 195.10 265.74 190.85 267.05 187.69 269.92 Z" />
<path fill="#211916" opacity="1.00" d=" M 78.35 265.39 C 94.87 264.93 111.47 265.26 128.02 265.23 C 132.91 266.55 137.59 270.68 138.09 275.99 C 138.95 281.22 136.46 286.31 133.29 290.31 C 131.70 292.14 129.74 294.35 127.05 294.01 C 110.76 293.87 94.45 294.25 78.18 293.82 C 71.97 289.86 67.76 281.77 69.58 274.40 C 70.59 270.04 74.47 267.13 78.35 265.39 Z" />
<path fill="#211916" opacity="1.00" d=" M 283.52 290.40 C 289.34 276.84 304.88 270.13 318.99 270.86 C 330.70 271.24 341.53 278.92 346.50 289.40 C 350.14 297.36 350.98 306.32 350.55 314.97 C 349.67 328.36 347.28 341.59 346.21 354.96 C 344.99 369.40 343.43 383.81 342.19 398.24 C 340.98 385.27 338.69 372.40 334.83 359.95 C 332.58 351.48 329.07 343.01 329.73 334.09 C 330.23 327.02 334.62 321.07 339.49 316.25 C 341.02 314.94 340.79 312.75 341.12 310.96 C 341.92 303.65 341.34 295.46 336.37 289.63 C 331.57 283.93 324.57 279.62 316.98 279.39 C 310.18 279.32 303.15 281.31 297.99 285.88 C 291.90 291.20 289.20 300.20 291.62 307.95 C 294.23 316.55 298.49 324.51 302.39 332.57 C 311.06 351.32 318.84 370.48 326.15 389.79 C 329.46 399.03 333.40 408.24 334.22 418.12 C 335.55 430.06 337.33 442.38 334.16 454.19 C 330.85 466.68 323.26 478.28 312.25 485.26 C 302.39 484.08 292.18 483.29 283.12 478.90 C 277.81 476.40 273.18 471.82 271.96 465.93 C 270.63 459.11 272.26 452.11 274.62 445.71 C 269.90 448.37 267.51 453.48 266.21 458.52 C 249.31 452.27 230.82 455.15 213.57 450.63 C 207.60 449.00 201.43 446.47 197.48 441.48 C 192.27 434.90 192.60 424.57 198.54 418.53 C 207.26 409.38 219.95 405.98 230.09 398.83 C 229.73 401.33 229.19 403.81 228.38 406.21 C 238.82 402.13 249.79 396.64 255.67 386.62 C 260.59 394.79 267.93 401.34 276.42 405.61 C 286.94 411.22 299.12 413.07 309.16 419.63 C 312.81 421.94 315.76 425.14 318.51 428.44 C 322.75 423.34 322.39 416.26 321.33 410.12 C 319.04 397.49 313.74 385.71 309.09 373.83 C 301.64 355.57 294.19 337.28 285.20 319.71 C 280.61 310.77 279.33 299.74 283.52 290.40 Z" />
<path fill="#211916" opacity="1.00" d=" M 165.08 293.81 C 170.78 292.48 177.12 288.90 182.71 292.44 C 176.54 294.21 170.21 295.43 164.09 297.39 C 161.20 298.18 158.03 299.06 155.11 297.93 C 152.57 296.99 151.15 294.57 149.66 292.49 C 154.34 295.21 159.99 295.47 165.08 293.81 Z" />
<path fill="#211916" opacity="1.00" d=" M 80.99 298.05 C 96.64 298.24 112.30 298.01 127.94 298.42 C 127.12 301.03 124.29 301.77 122.55 303.58 C 118.88 307.09 116.16 311.50 114.05 316.09 C 112.89 318.30 114.65 321.23 116.98 321.70 C 119.82 322.10 122.70 321.97 125.56 322.02 C 122.37 361.50 119.20 400.98 115.99 440.45 C 110.91 440.60 106.06 442.28 101.05 442.93 C 97.92 443.35 94.80 442.66 91.69 442.39 C 89.23 411.47 86.63 380.56 84.71 349.60 C 88.39 346.73 91.95 343.54 94.46 339.56 C 95.64 337.40 93.68 335.38 92.26 333.98 C 94.12 332.44 97.54 331.12 96.81 328.09 C 96.21 325.16 92.86 324.47 90.63 323.20 C 93.29 322.28 97.07 320.19 95.17 316.83 C 91.48 312.61 86.57 309.52 81.66 306.88 C 81.40 303.94 81.19 300.99 80.99 298.05 Z" />
<path fill="#211916" opacity="1.00" d=" M 127.47 304.67 C 133.64 301.23 140.55 311.82 134.85 316.00 C 129.49 318.83 123.13 318.15 117.28 318.06 C 119.89 313.10 122.72 307.89 127.47 304.67 Z" />
<path fill="#211916" opacity="1.00" d=" M 72.72 322.74 C 68.72 318.85 69.45 309.40 75.97 308.98 C 82.25 309.94 87.14 314.47 91.97 318.24 C 88.21 320.04 84.37 321.68 80.44 323.05 C 84.78 324.65 89.08 326.40 93.25 328.41 C 89.55 331.08 85.76 333.65 81.70 335.76 C 84.88 336.26 88.03 336.92 91.17 337.66 C 87.99 341.28 84.91 345.83 80.00 347.07 C 75.60 346.92 73.95 341.62 74.76 337.94 C 68.20 336.09 67.58 326.54 72.72 322.74 Z" />
<path fill="#211916" opacity="1.00" d=" M 128.35 343.35 C 136.01 347.24 144.55 348.70 152.96 349.97 C 147.94 355.43 145.34 362.43 144.10 369.65 C 139.04 373.43 135.76 379.01 133.77 384.92 C 130.86 382.88 127.81 381.06 124.73 379.30 C 125.80 367.30 127.31 355.35 128.35 343.35 Z" />
<path fill="#211916" opacity="1.00" d=" M 146.35 415.14 C 150.15 426.83 159.36 436.02 169.57 442.43 C 177.51 447.36 186.66 450.20 195.96 450.93 C 183.67 458.50 170.95 465.47 157.39 470.53 C 147.28 475.00 136.86 478.86 126.00 481.09 C 118.69 482.85 111.18 483.57 103.88 485.38 C 98.95 486.37 93.64 481.61 95.04 476.50 C 91.10 475.50 87.65 472.31 87.36 468.10 C 86.87 465.23 88.41 462.66 90.25 460.63 C 86.56 458.12 84.13 452.84 86.76 448.75 C 88.84 445.68 92.96 446.02 96.16 446.52 C 102.95 447.59 109.36 443.88 116.11 444.26 C 118.53 445.11 120.31 447.52 123.03 447.54 C 126.81 447.52 129.81 444.78 132.24 442.17 C 138.89 434.40 144.86 425.48 146.35 415.14 Z" />
<path fill="#211916" opacity="1.00" d=" M 197.47 564.32 C 204.68 564.29 211.88 564.28 219.08 564.39 C 218.90 579.46 216.92 595.28 208.29 608.07 C 199.61 595.28 197.67 579.41 197.47 564.32 Z" />
<path fill="#211916" opacity="1.00" d=" M 105.65 570.12 C 112.82 569.28 119.99 568.53 127.17 567.84 C 127.67 583.35 126.36 599.74 117.96 613.23 C 108.92 600.80 106.35 585.12 105.65 570.12 Z" />
<path fill="#211916" opacity="1.00" d=" M 289.38 568.23 C 296.56 568.92 303.73 569.69 310.89 570.52 C 310.15 585.39 307.59 600.92 298.59 613.22 C 290.28 599.84 288.90 583.61 289.38 568.23 Z" />
<path fill="#211916" opacity="1.00" d=" M 59.69 654.18 C 65.14 654.18 70.60 654.18 76.06 654.18 C 76.07 674.80 76.06 695.43 76.06 716.05 C 75.94 720.79 77.51 725.73 81.11 728.96 C 85.07 732.67 90.86 733.49 96.07 732.90 C 100.59 732.50 105.16 730.64 108.06 727.04 C 110.63 723.97 111.60 719.90 111.57 715.98 C 111.56 695.38 111.56 674.78 111.56 654.18 C 117.02 654.18 122.48 654.18 127.94 654.19 C 127.93 675.13 127.94 696.07 127.94 717.02 C 128.03 724.20 126.06 731.70 121.07 737.06 C 114.76 744.05 105.19 747.17 95.98 747.53 C 86.54 747.96 76.26 746.52 68.83 740.19 C 62.38 734.81 59.71 726.16 59.71 717.99 C 59.65 696.72 59.70 675.45 59.69 654.18 Z" />
<path fill="#211916" opacity="1.00" d=" M 146.68 654.18 C 166.87 654.19 187.06 654.18 207.25 654.18 C 207.25 659.02 207.26 663.87 207.24 668.71 C 192.51 668.66 177.79 668.71 163.06 668.69 C 163.06 675.83 163.05 682.98 163.07 690.12 C 173.82 690.12 184.56 690.12 195.31 690.12 C 195.32 694.77 195.32 699.41 195.32 704.06 C 184.56 704.07 173.82 704.06 163.07 704.06 C 163.06 718.06 163.06 732.06 163.06 746.06 C 157.60 746.06 152.14 746.06 146.68 746.06 C 146.69 715.43 146.69 684.81 146.68 654.18 Z" />
<path fill="#211916" opacity="1.00" d=" M 221.57 654.22 C 235.39 653.77 249.53 652.37 263.05 656.11 C 269.35 657.82 275.62 661.17 279.05 666.96 C 283.31 674.11 283.14 683.02 281.47 690.93 C 279.89 698.29 274.97 704.85 268.18 708.18 C 258.87 712.78 248.11 713.15 237.94 712.31 C 237.94 723.56 237.94 734.81 237.94 746.06 C 232.48 746.06 227.02 746.06 221.56 746.06 C 221.57 715.45 221.54 684.83 221.57 654.22 M 237.96 668.32 C 237.91 678.13 237.95 687.95 237.95 697.76 C 244.62 698.36 251.66 698.57 257.97 695.96 C 267.60 692.21 268.88 676.20 259.56 671.37 C 252.97 667.88 245.22 667.87 237.96 668.32 Z" />
<path fill="#211916" opacity="1.00" d=" M 296.87 654.18 C 316.44 654.19 336.00 654.18 355.57 654.19 C 355.56 659.02 355.57 663.85 355.57 668.69 C 341.48 668.68 327.38 668.72 313.29 668.67 C 313.21 675.81 313.28 682.96 313.25 690.11 C 323.36 690.13 333.46 690.11 343.57 690.13 C 343.56 694.77 343.57 699.41 343.57 704.06 C 333.46 704.07 323.36 704.06 313.26 704.06 C 313.25 713.21 313.25 722.35 313.26 731.50 C 327.13 731.49 341.00 731.50 354.87 731.49 C 354.88 736.35 354.87 741.20 354.88 746.06 C 335.54 746.07 316.21 746.06 296.87 746.06 C 296.87 715.44 296.87 684.81 296.87 654.18 Z" />
</g>
</svg>
