<?xml version="1.0" encoding="UTF-8" ?>
<!DOCTYPE svg PUBLIC "-//W3C//DTD SVG 1.1//EN" "http://www.w3.org/Graphics/SVG/1.1/DTD/svg11.dtd">
<svg width="1254pt" height="1254pt" viewBox="0 0 1254 1254" version="1.1" xmlns="http://www.w3.org/2000/svg">
<g id="#fefefeff">
</g>
<g id="#1e1e1eff">
<path fill="#1e1e1e" opacity="1.00" d=" M 527.23 95.98 C 554.08 93.68 581.02 92.35 607.99 92.31 C 642.28 92.02 676.61 92.32 710.79 95.10 C 742.24 97.47 773.72 101.00 804.48 108.23 C 825.49 112.83 846.27 119.10 865.58 128.69 C 889.70 140.30 911.57 156.56 929.69 176.26 C 951.55 200.33 967.56 229.46 977.23 260.45 C 986.01 289.75 989.07 320.52 988.49 351.01 C 988.53 425.68 988.52 500.35 988.52 575.01 C 988.54 579.34 989.13 583.76 990.87 587.76 C 1009.01 624.61 1021.48 664.27 1027.40 704.92 C 1034.81 756.67 1032.87 809.79 1021.23 860.79 C 999.63 954.08 945.29 1040.08 868.18 1097.28 C 850.54 1110.48 831.88 1122.52 811.83 1131.73 C 792.55 1140.92 771.35 1146.36 749.94 1146.27 C 666.98 1146.31 584.02 1146.23 501.05 1146.29 C 494.29 1146.48 487.58 1145.47 480.84 1145.17 C 459.84 1141.93 439.92 1133.72 421.41 1123.46 C 363.03 1091.48 314.24 1043.25 278.99 987.00 C 234.06 913.86 211.37 826.82 217.08 741.02 C 219.79 693.06 231.18 645.59 250.66 601.67 C 252.99 595.67 256.63 590.15 257.85 583.76 C 258.71 579.89 258.77 575.91 258.71 571.97 C 258.72 513.31 258.68 454.65 258.72 395.99 C 258.86 375.01 258.44 354.02 258.87 333.04 C 260.06 292.21 268.84 250.87 289.36 215.22 C 313.30 172.83 352.52 139.50 397.81 121.86 C 419.06 113.40 441.42 108.13 463.89 104.12 C 484.81 100.04 506.04 97.98 527.23 95.98 M 581.38 207.64 C 559.46 208.48 537.61 210.54 515.88 213.50 C 494.85 216.66 473.76 220.23 453.43 226.59 C 429.38 234.08 407.48 249.11 393.18 270.00 C 377.96 292.15 371.46 319.33 371.43 345.97 C 371.33 369.33 371.40 392.69 371.38 416.05 C 371.51 423.74 370.85 431.63 373.05 439.11 C 375.15 446.57 379.79 453.66 386.90 457.16 C 392.98 460.49 400.77 460.38 406.73 456.83 C 425.50 446.67 444.81 437.48 464.81 429.98 C 502.60 415.95 542.36 407.26 582.52 403.86 C 633.14 399.96 684.54 402.62 733.91 414.96 C 771.89 423.95 808.35 438.74 842.58 457.38 C 851.44 462.19 862.75 458.14 868.70 450.59 C 874.30 443.73 876.16 434.70 876.16 426.04 C 876.16 400.04 876.19 374.03 876.15 348.03 C 876.12 327.71 873.33 307.01 864.67 288.44 C 857.18 271.85 846.04 256.63 831.41 245.65 C 819.04 236.00 804.54 229.35 789.59 224.77 C 766.58 218.12 742.81 214.66 719.08 211.77 C 673.39 206.70 627.30 205.60 581.38 207.64 Z" />
</g>
</svg>
